<?xml version="1.0" encoding="UTF-8" standalone="no"?>
<!-- Created with Inkscape (http://www.inkscape.org/) -->

<svg
   xmlns:dc="http://purl.org/dc/elements/1.1/"
   xmlns:cc="http://creativecommons.org/ns#"
   xmlns:rdf="http://www.w3.org/1999/02/22-rdf-syntax-ns#"
   xmlns:svg="http://www.w3.org/2000/svg"
   xmlns="http://www.w3.org/2000/svg"
   xmlns:sodipodi="http://sodipodi.sourceforge.net/DTD/sodipodi-0.dtd"
   xmlns:inkscape="http://www.inkscape.org/namespaces/inkscape"
   width="210mm"
   height="297mm"
   viewBox="0 0 744.09448819 1052.3622047"
   id="svg2"
   version="1.1"
   inkscape:version="0.91 r13725"
   sodipodi:docname="brain.svg">
  <defs
     id="defs4" />
  <sodipodi:namedview
     id="base"
     pagecolor="#ffffff"
     bordercolor="#666666"
     borderopacity="1.0"
     inkscape:pageopacity="0.0"
     inkscape:pageshadow="2"
     inkscape:zoom="0.50000001"
     inkscape:cx="198.55602"
     inkscape:cy="669.95374"
     inkscape:document-units="px"
     inkscape:current-layer="layer1"
     showgrid="false"
     inkscape:window-width="1680"
     inkscape:window-height="1027"
     inkscape:window-x="1280"
     inkscape:window-y="0"
     inkscape:window-maximized="1" />
  <metadata
     id="metadata7">
    <rdf:RDF>
      <cc:Work
         rdf:about="">
        <dc:format>image/svg+xml</dc:format>
        <dc:type
           rdf:resource="http://purl.org/dc/dcmitype/StillImage" />
        <dc:title />
      </cc:Work>
    </rdf:RDF>
  </metadata>
  <g
     inkscape:label="Layer 1"
     inkscape:groupmode="layer"
     id="layer1">
    <rect
       style="opacity:1;fill:#00ffff;fill-opacity:1;stroke:none;stroke-width:20;stroke-linecap:round;stroke-linejoin:round;stroke-miterlimit:4;stroke-dasharray:none;stroke-dashoffset:0;stroke-opacity:1"
       id="rect4190"
       width="531.01074"
       height="488"
       x="-39.505379"
       y="100.69164"
       inkscape:export-filename="/home/siqueira/Documents/usp/2/gen/trabalho_GEN/images/pc_image.png"
       inkscape:export-xdpi="90"
       inkscape:export-ydpi="90" />
    <path
       style="color:#000000;font-style:normal;font-variant:normal;font-weight:normal;font-stretch:normal;font-size:medium;line-height:normal;font-family:sans-serif;text-indent:0;text-align:start;text-decoration:none;text-decoration-line:none;text-decoration-style:solid;text-decoration-color:#000000;letter-spacing:normal;word-spacing:normal;text-transform:none;direction:ltr;block-progression:tb;writing-mode:lr-tb;baseline-shift:baseline;text-anchor:start;white-space:normal;clip-rule:nonzero;display:inline;overflow:visible;visibility:visible;opacity:1;isolation:auto;mix-blend-mode:normal;color-interpolation:sRGB;color-interpolation-filters:linearRGB;solid-color:#000000;solid-opacity:1;fill:#773248;fill-opacity:1;fill-rule:evenodd;stroke:#ffffff;stroke-width:20;stroke-linecap:round;stroke-linejoin:round;stroke-miterlimit:4;stroke-dasharray:none;stroke-dashoffset:0;stroke-opacity:1;color-rendering:auto;image-rendering:auto;shape-rendering:auto;text-rendering:auto;enable-background:accumulate"
       d="M 215.60352 128.36523 A 67 67 0 0 0 213.2832 128.46094 A 67 67 0 0 0 213.25391 128.46094 A 67 67 0 0 0 209.87305 128.59961 A 67 67 0 0 0 206.58594 128.96875 A 67 67 0 0 0 203.24414 129.44336 A 67 67 0 0 0 197.6875 130.63867 A 67 67 0 0 0 197.66016 130.64453 A 67 67 0 0 0 197.6582 130.64453 A 67 67 0 0 0 152.11133 172.49023 A 67 67 0 0 0 152.10742 172.49023 A 67 67 0 0 0 146.66602 170.78906 A 67 67 0 0 0 145.6582 170.48047 A 67 67 0 0 0 141.10938 169.54297 A 67 67 0 0 0 139.03516 169.12695 A 67 67 0 0 0 135.41016 168.75391 A 67 67 0 0 0 132.16211 168.43555 A 67 67 0 0 0 132.0293 168.43555 A 67 67 0 0 0 127.41797 168.38086 A 67 67 0 0 0 126.44922 168.45312 A 67 67 0 0 0 123.10352 168.69922 A 67 67 0 0 0 123.08789 168.70117 A 67 67 0 0 0 119.76953 169.04297 A 67 67 0 0 0 116.48633 169.61914 A 67 67 0 0 0 116.46289 169.62305 A 67 67 0 0 0 113.20508 170.29297 A 67 67 0 0 0 109.96875 171.20117 A 67 67 0 0 0 109.96484 171.20312 A 67 67 0 0 0 106.77734 172.19922 A 67 67 0 0 0 103.69727 173.40625 A 67 67 0 0 0 103.68945 173.41016 A 67 67 0 0 0 100.57812 174.73438 A 67 67 0 0 0 95.5 177.33789 A 67 67 0 0 0 63.574219 249.41211 A 67 67 0 0 0 57.064453 250.87695 A 67 67 0 0 0 57.03125 250.88672 A 67 67 0 0 0 57.023438 250.88867 A 67 67 0 0 0 50.791016 252.96289 A 67 67 0 0 0 50.644531 253.01562 A 67 67 0 0 0 44.785156 255.64258 A 67 67 0 0 0 44.494141 255.7832 A 67 67 0 0 0 44.484375 255.78711 A 67 67 0 0 0 39.080078 258.89258 A 67 67 0 0 0 38.648438 259.15625 A 67 67 0 0 0 33.695312 262.70703 A 67 67 0 0 0 33.185547 263.09375 A 67 67 0 0 0 33.177734 263.09961 A 67 67 0 0 0 28.763672 266.98047 A 67 67 0 0 0 28.121094 267.57812 A 67 67 0 0 0 24.285156 271.70117 A 67 67 0 0 0 23.533203 272.55664 A 67 67 0 0 0 20.259766 276.86719 A 67 67 0 0 0 19.482422 277.95508 A 67 67 0 0 0 16.789062 282.35547 A 67 67 0 0 0 15.980469 283.76562 A 67 67 0 0 0 15.978516 283.76953 A 67 67 0 0 0 13.884766 288.10742 A 67 67 0 0 0 13.080078 289.90625 A 67 67 0 0 0 13.078125 289.9082 A 67 67 0 0 0 11.541016 294.13086 A 67 67 0 0 0 10.818359 296.30469 A 67 67 0 0 0 9.7832031 300.36719 A 67 67 0 0 0 9.21875 302.88867 A 67 67 0 0 0 9.2167969 302.89844 A 67 67 0 0 0 8.6445312 306.69336 A 67 67 0 0 0 8.2871094 309.64062 A 67 67 0 0 0 8.2871094 309.64453 A 67 67 0 0 0 8 315.36133 A 67 67 0 0 0 64.507812 381.49609 A 67 67 0 0 0 64.511719 381.49609 A 67 67 0 0 0 95.5 457.38672 A 67 67 0 0 0 152.11133 462.23438 A 67 67 0 0 0 197.66016 504.07812 A 67 67 0 0 0 253.45703 494.14453 C 269.98857 501.18224 287.67584 514.72557 301.54102 527.64258 C 318.21969 543.18068 329.47656 557.26367 329.47656 557.26367 A 10.001 10.001 0 0 0 346.36914 555.21484 C 351.58837 543.90652 355.73375 523.09473 357.18164 499.82227 C 358.06151 485.67974 358.17295 471.0388 355.12891 458.09766 A 67 67 0 0 0 356.5 457.38672 A 67 67 0 0 0 387.52148 381.49219 A 67 67 0 0 0 444 315.36133 A 67 67 0 0 0 443.6582 308.67188 A 67 67 0 0 0 388.47266 249.41992 A 67 67 0 0 0 388.64453 248.36719 A 67 67 0 0 0 388.85156 247.0918 A 67 67 0 0 0 389.61523 241.76172 A 67 67 0 0 0 389.70117 240.36133 A 67 67 0 0 0 389.92383 235.08984 A 67 67 0 0 0 389.86719 233.60742 A 67 67 0 0 0 389.56641 228.42969 A 67 67 0 0 0 389.34375 226.82227 A 67 67 0 0 0 388.55078 221.84375 A 67 67 0 0 0 388.13672 220.13672 A 67 67 0 0 0 386.87891 215.37109 A 67 67 0 0 0 386.27148 213.64258 A 67 67 0 0 0 384.58008 209.12109 A 67 67 0 0 0 383.71289 207.26953 A 67 67 0 0 0 381.67969 203.14648 A 67 67 0 0 0 380.50781 201.18359 A 67 67 0 0 0 378.19141 197.46875 A 67 67 0 0 0 376.72656 195.49414 A 67 67 0 0 0 374.16016 192.17383 A 67 67 0 0 0 372.36914 190.20508 A 67 67 0 0 0 369.62109 187.30273 A 67 67 0 0 0 367.51758 185.41211 A 67 67 0 0 0 364.62109 182.90625 A 67 67 0 0 0 362.16406 181.10547 A 67 67 0 0 0 359.02148 178.89453 A 67 67 0 0 0 356.5 177.33789 A 67 67 0 0 0 350.54102 174.2832 A 67 67 0 0 0 350.53906 174.2832 A 67 67 0 0 0 324.58203 168.37891 A 67 67 0 0 0 319.83789 168.43555 A 67 67 0 0 0 318.85938 168.5332 A 67 67 0 0 0 318.85352 168.5332 A 67 67 0 0 0 315.31836 168.88477 A 67 67 0 0 0 312.38281 169.25781 A 67 67 0 0 0 312.37891 169.25781 A 67 67 0 0 0 308.22852 170.09766 A 67 67 0 0 0 306.01953 170.60547 A 67 67 0 0 0 301.34961 172.04492 A 67 67 0 0 0 299.79688 172.57031 A 67 67 0 0 0 294.69336 174.72266 A 67 67 0 0 0 293.80469 175.12695 A 67 67 0 0 0 293.80273 175.12891 A 67 67 0 0 0 288.41797 178.0625 A 67 67 0 0 0 288.06641 178.26758 A 67 67 0 0 0 280.82812 183.31836 A 67 67 0 0 0 280.81055 183.23438 A 67 67 0 0 0 279.7168 178.02148 A 67 67 0 0 0 258.62305 144.50781 A 67 67 0 0 0 247.64844 136.85547 A 67 67 0 0 0 241.64648 133.88867 A 67 67 0 0 0 241.64453 133.88867 A 67 67 0 0 0 228.90234 129.82031 A 67 67 0 0 0 228.90039 129.82031 A 67 67 0 0 0 222.28906 128.75977 A 67 67 0 0 0 217.55859 128.41016 A 67 67 0 0 0 216.5625 128.42188 A 67 67 0 0 0 215.60352 128.36523 z "
       id="path4194"
       inkscape:export-filename="/home/siqueira/Documents/usp/2/gen/trabalho_GEN/images/pc_image.png"
       inkscape:export-xdpi="90"
       inkscape:export-ydpi="90" />
    <g
       id="g4175"
       inkscape:export-filename="/home/siqueira/Documents/usp/2/gen/trabalho_GEN/images/pc_image.png"
       inkscape:export-xdpi="90"
       inkscape:export-ydpi="90">
      <path
         id="path4164"
         d="M 275.82227 419.40234 A 10.001 10.001 0 0 0 267.10352 424.41406 L 237.40625 476.0332 A 10.001 10.001 0 0 0 243.57422 490.70312 C 262.64713 495.62576 284.86235 512.10448 301.54102 527.64258 C 318.21969 543.18068 329.47656 557.26367 329.47656 557.26367 A 10.001 10.001 0 0 0 346.36914 555.21484 C 351.58837 543.90652 355.73375 523.09473 357.18164 499.82227 C 358.62953 476.5498 358.01533 451.91826 344.64062 435.75391 A 10.001 10.001 0 0 0 338.97461 432.33789 L 277.80859 419.61133 A 10.001 10.001 0 0 0 275.82227 419.40234 z "
         style="color:#000000;font-style:normal;font-variant:normal;font-weight:normal;font-stretch:normal;font-size:medium;line-height:normal;font-family:sans-serif;text-indent:0;text-align:start;text-decoration:none;text-decoration-line:none;text-decoration-style:solid;text-decoration-color:#000000;letter-spacing:normal;word-spacing:normal;text-transform:none;direction:ltr;block-progression:tb;writing-mode:lr-tb;baseline-shift:baseline;text-anchor:start;white-space:normal;clip-rule:nonzero;display:inline;overflow:visible;visibility:visible;opacity:1;isolation:auto;mix-blend-mode:normal;color-interpolation:sRGB;color-interpolation-filters:linearRGB;solid-color:#000000;solid-opacity:1;fill:#773248;fill-opacity:1;fill-rule:evenodd;stroke:none;stroke-width:20;stroke-linecap:round;stroke-linejoin:round;stroke-miterlimit:4;stroke-dasharray:none;stroke-dashoffset:0;stroke-opacity:1;color-rendering:auto;image-rendering:auto;shape-rendering:auto;text-rendering:auto;enable-background:accumulate" />
      <path
         sodipodi:nodetypes="ccccc"
         inkscape:connector-curvature="0"
         id="path4154"
         d="m 246.07315,481.01994 c 44.46891,11.47722 91.21678,70.00357 91.21678,70.00357 7.55756,-16.37471 18.98772,-85.51901 -0.35356,-108.89444 l -61.16473,-12.72792 z"
         style="fill:#f658d6;fill-opacity:1;fill-rule:evenodd;stroke:none;stroke-width:1px;stroke-linecap:butt;stroke-linejoin:miter;stroke-opacity:1;opacity:0.7" />
      <path
         id="path4169"
         d="M 275.77148 429.40039 L 246.07227 481.01953 C 254.89348 483.29625 263.80009 487.44228 272.41797 492.59766 A 67 67 0 0 0 283.25195 470.13867 A 67 67 0 0 0 284.375 464.77539 A 67 67 0 0 0 347.24805 476.48242 C 346.30626 462.42545 343.28661 449.80466 336.93555 442.12891 L 275.77148 429.40039 z "
         style="opacity:0.82;fill:#773248;fill-opacity:1;stroke:none;stroke-width:30;stroke-linecap:round;stroke-linejoin:round;stroke-miterlimit:4;stroke-dasharray:none;stroke-dashoffset:0;stroke-opacity:1" />
      <path
         id="path4317"
         d="m 215.60352,128.36523 a 67,67 0 0 0 -17.94336,2.2793 67,67 0 0 0 -45.54883,41.8457 67,67 0 0 0 -19.94922,-4.05468 A 67,67 0 0 0 95.5,177.33789 67,67 0 0 0 63.574219,249.41211 67,67 0 0 0 8,315.36133 67,67 0 0 0 64.511719,381.49609 67,67 0 0 0 95.5,457.38672 a 67,67 0 0 0 56.61133,4.84766 67,67 0 0 0 45.54883,41.84374 67,67 0 0 0 82.05664,-47.375 67,67 0 0 0 1.12304,-5.36328 A 67,67 0 0 0 356.5,457.38672 67,67 0 0 0 387.52148,381.49219 67,67 0 0 0 444,315.36133 67,67 0 0 0 388.47266,249.41992 67,67 0 0 0 356.5,177.33789 a 67,67 0 0 0 -31.91797,-8.95898 67,67 0 0 0 -4.74414,0.0566 67,67 0 0 0 -38.99609,14.94922 67,67 0 0 0 -1.125,-5.36329 67,67 0 0 0 -64.11328,-49.65625 z"
         style="opacity:1;fill:#ffaaee;fill-opacity:1;stroke:none;stroke-width:30;stroke-linecap:round;stroke-linejoin:round;stroke-miterlimit:4;stroke-dasharray:none;stroke-dashoffset:0;stroke-opacity:1" />
      <path
         id="path4155"
         d="M 75 248.36133 A 67 67 0 0 0 8 315.36133 A 67 67 0 0 0 75 382.36133 A 67 67 0 0 0 80.496094 382.10352 A 88.803299 88.803299 0 0 1 76 354.55859 A 88.803299 88.803299 0 0 1 127.6875 274 A 67 67 0 0 0 75 248.36133 z "
         style="opacity:1;fill:#f87ddf;fill-opacity:1;stroke:none;stroke-width:30;stroke-linecap:round;stroke-linejoin:round;stroke-miterlimit:4;stroke-dasharray:none;stroke-dashoffset:0;stroke-opacity:1" />
      <path
         id="circle4168"
         d="M 127.41797 168.38086 A 67 67 0 0 0 95.5 177.33789 A 67 67 0 0 0 70.976562 268.86133 A 67 67 0 0 0 92.507812 291.55078 A 88.803299 88.803299 0 0 1 165.15625 253.73438 A 88.803299 88.803299 0 0 1 192.00781 257.92383 A 67 67 0 0 0 187.02344 201.86133 A 67 67 0 0 0 127.41797 168.38086 z "
         style="opacity:1;fill:#f87ddf;fill-opacity:1;stroke:none;stroke-width:30;stroke-linecap:round;stroke-linejoin:round;stroke-miterlimit:4;stroke-dasharray:none;stroke-dashoffset:0;stroke-opacity:1" />
      <path
         id="circle4174"
         d="M 217.55859 128.41016 A 67 67 0 0 0 197.6582 130.64453 A 67 67 0 0 0 150.2832 212.70312 A 67 67 0 0 0 157.77344 230.13281 A 88.803299 88.803299 0 0 1 212.88672 210.95508 A 88.803299 88.803299 0 0 1 270.71875 232.41797 A 67 67 0 0 0 279.7168 178.02148 A 67 67 0 0 0 217.55859 128.41016 z "
         style="opacity:1;fill:#f87ddf;fill-opacity:1;stroke:none;stroke-width:30;stroke-linecap:round;stroke-linejoin:round;stroke-miterlimit:4;stroke-dasharray:none;stroke-dashoffset:0;stroke-opacity:1" />
      <path
         id="circle4180"
         d="M 409.18945 310.47461 A 61 61 0 0 1 354.51367 365.56055 A 50 50 0 0 0 359.5 365.86133 A 50 50 0 0 0 409.5 315.86133 A 50 50 0 0 0 409.18945 310.47461 z "
         style="opacity:1;fill:#ffdaf7;fill-opacity:1;stroke:none;stroke-width:30;stroke-linecap:round;stroke-linejoin:round;stroke-miterlimit:4;stroke-dasharray:none;stroke-dashoffset:0;stroke-opacity:1" />
      <path
         id="circle4186"
         d="M 324.58008 168.38086 A 67 67 0 0 0 264.97656 201.86133 A 67 67 0 0 0 261.27539 209.47266 A 88.803299 88.803299 0 0 1 325.58203 273.18555 L 331.98633 267.47461 L 340.47266 261.81641 L 356.38086 257.92773 L 368.40234 256.86719 L 381.83789 258.28125 L 381.98633 266.98438 A 67 67 0 0 0 356.5 177.33789 A 67 67 0 0 0 324.58008 168.38086 z "
         style="opacity:1;fill:#f87ddf;fill-opacity:1;stroke:none;stroke-width:30;stroke-linecap:round;stroke-linejoin:round;stroke-miterlimit:4;stroke-dasharray:none;stroke-dashoffset:0;stroke-opacity:1" />
      <path
         id="circle4342"
         d="M 90.716797 372.18359 A 50 50 0 0 0 89.5 382.86133 A 50 50 0 0 0 139.5 432.86133 A 50 50 0 0 0 160.67969 428.08984 A 61 61 0 0 1 151.5 428.86133 A 61 61 0 0 1 90.716797 372.18359 z "
         style="opacity:1;fill:#ffdaf7;fill-opacity:1;stroke:none;stroke-width:30;stroke-linecap:round;stroke-linejoin:round;stroke-miterlimit:4;stroke-dasharray:none;stroke-dashoffset:0;stroke-opacity:1" />
      <path
         id="path4282"
         d="M 215.60352 128.36523 A 67 67 0 0 0 197.66016 130.64453 A 67 67 0 0 0 152.11133 172.49023 A 67 67 0 0 0 132.16211 168.43555 A 67 67 0 0 0 95.5 177.33789 A 67 67 0 0 0 63.574219 249.41211 A 67 67 0 0 0 8 315.36133 A 67 67 0 0 0 64.511719 381.49609 A 67 67 0 0 0 95.5 457.38672 A 67 67 0 0 0 152.11133 462.23438 A 67 67 0 0 0 197.66016 504.07812 A 67 67 0 0 0 279.7168 456.70312 A 67 67 0 0 0 280.83984 451.33984 A 67 67 0 0 0 356.5 457.38672 A 67 67 0 0 0 387.52148 381.49219 A 67 67 0 0 0 444 315.36133 A 67 67 0 0 0 388.47266 249.41992 A 67 67 0 0 0 356.5 177.33789 A 67 67 0 0 0 324.58203 168.37891 A 67 67 0 0 0 319.83789 168.43555 A 67 67 0 0 0 280.8418 183.38477 A 67 67 0 0 0 279.7168 178.02148 A 67 67 0 0 0 215.60352 128.36523 z M 221.83203 159.77148 A 53.5 53.5 0 0 1 271.46484 199.38477 A 53.5 53.5 0 0 1 268.1582 236.07031 A 67 67 0 0 0 280.36328 209.58594 A 53.5 53.5 0 0 1 340.5 205.05078 A 53.5 53.5 0 0 1 367.18945 249.16602 A 67 67 0 0 0 323.91992 274.55078 A 53.5 53.5 0 0 1 358.5 261.86133 A 53.5 53.5 0 0 1 412 315.36133 A 53.5 53.5 0 0 1 358.5 368.86133 A 53.5 53.5 0 0 1 323.91211 356.09961 A 67 67 0 0 0 367.19531 381.54102 A 53.5 53.5 0 0 1 340.5 429.67383 A 53.5 53.5 0 0 1 280.36523 425.13867 A 67 67 0 0 0 268.1582 398.65234 A 53.5 53.5 0 0 1 271.46484 435.33984 A 53.5 53.5 0 0 1 205.94141 473.16992 A 53.5 53.5 0 0 1 168.11133 407.64648 A 53.5 53.5 0 0 1 189.39062 377.53906 A 67 67 0 0 0 150.2832 422.02148 A 67 67 0 0 0 148.16992 435.88672 A 67 67 0 0 0 148.16797 435.95117 A 67 67 0 0 1 148.16992 435.88672 A 53.5 53.5 0 0 1 111.5 429.67383 A 53.5 53.5 0 0 1 91.917969 356.58984 A 53.5 53.5 0 0 1 120.26367 333.01758 A 67 67 0 0 0 71.955078 364.29492 A 53.5 53.5 0 0 1 40 315.36133 A 53.5 53.5 0 0 1 93.5 261.86133 A 53.5 53.5 0 0 1 128.08008 274.55078 A 67 67 0 0 0 84.857422 249.17383 A 53.5 53.5 0 0 1 111.5 205.05078 A 53.5 53.5 0 0 1 184.58203 224.63281 A 53.5 53.5 0 0 1 190.88281 260.92578 A 67 67 0 0 0 187.02344 201.86133 A 67 67 0 0 0 173.92383 185.70117 A 53.5 53.5 0 0 1 205.94141 161.55469 A 53.5 53.5 0 0 1 221.83203 159.77148 z M 75 248.36133 A 67 67 0 0 0 69.710938 248.625 A 67 67 0 0 1 75 248.36133 z M 375.29688 248.41602 A 67 67 0 0 0 372.59766 248.59375 A 67 67 0 0 1 375.29688 248.41602 z M 70.976562 365.86133 A 67 67 0 0 0 68.833984 370.04297 A 67 67 0 0 1 70.976562 365.86133 z M 66.90625 374.41211 A 67 67 0 0 0 66.416016 375.66211 A 67 67 0 0 1 66.90625 374.41211 z M 381.02344 382.21875 A 67 67 0 0 1 377 382.36133 A 67 67 0 0 0 381.02344 382.21875 z M 281.66406 445.09961 A 67 67 0 0 1 281.66016 445.15625 A 67 67 0 0 0 281.66406 445.09961 z "
         style="opacity:1;fill:#773248;fill-opacity:1;stroke:none;stroke-width:30;stroke-linecap:round;stroke-linejoin:round;stroke-miterlimit:4;stroke-dasharray:none;stroke-dashoffset:0;stroke-opacity:1" />
      <path
         id="circle4338"
         d="M 364.29883 381.35156 A 61 61 0 0 1 305 428.36133 A 61 61 0 0 1 283.16602 424.30664 A 50 50 0 0 0 314.5 435.36133 A 50 50 0 0 0 364.5 385.36133 A 50 50 0 0 0 364.29883 381.35156 z "
         style="opacity:1;fill:#ffdaf7;fill-opacity:1;stroke:none;stroke-width:30;stroke-linecap:round;stroke-linejoin:round;stroke-miterlimit:4;stroke-dasharray:none;stroke-dashoffset:0;stroke-opacity:1" />
      <path
         id="circle4340"
         d="M 173.25391 438.56836 A 50 50 0 0 0 220.5 472.36133 A 50 50 0 0 0 265.93164 443.09375 A 61 61 0 0 1 221.5 462.36133 A 61 61 0 0 1 173.25391 438.56836 z "
         style="opacity:1;fill:#ffdaf7;fill-opacity:1;stroke:none;stroke-width:30;stroke-linecap:round;stroke-linejoin:round;stroke-miterlimit:4;stroke-dasharray:none;stroke-dashoffset:0;stroke-opacity:1" />
    </g>
  </g>
</svg>
