<?xml version="1.0" encoding="UTF-8" standalone="no"?>
<!-- Created with Inkscape (http://www.inkscape.org/) -->

<svg
   xmlns:dc="http://purl.org/dc/elements/1.1/"
   xmlns:cc="http://creativecommons.org/ns#"
   xmlns:rdf="http://www.w3.org/1999/02/22-rdf-syntax-ns#"
   xmlns:svg="http://www.w3.org/2000/svg"
   xmlns="http://www.w3.org/2000/svg"
   xmlns:sodipodi="http://sodipodi.sourceforge.net/DTD/sodipodi-0.dtd"
   xmlns:inkscape="http://www.inkscape.org/namespaces/inkscape"
   width="210mm"
   height="297mm"
   viewBox="0 0 744.09448819 1052.3622047"
   id="svg2"
   version="1.1"
   inkscape:version="0.91 r13725"
   sodipodi:docname="vector_bar.svg">
  <sodipodi:namedview
     id="base"
     pagecolor="#ffffff"
     bordercolor="#666666"
     borderopacity="1.0"
     inkscape:pageopacity="0.0"
     inkscape:pageshadow="2"
     inkscape:zoom="1"
     inkscape:cx="385.97661"
     inkscape:cy="405.10578"
     inkscape:document-units="px"
     inkscape:current-layer="layer1"
     showgrid="false"
     inkscape:window-width="1680"
     inkscape:window-height="1007"
     inkscape:window-x="1280"
     inkscape:window-y="0"
     inkscape:window-maximized="1"
     inkscape:object-nodes="false" />
  <defs
     id="defs4">
    <inkscape:path-effect
       nr_y="7"
       nr_x="5"
       is_visible="true"
       id="path-effect4151"
       effect="construct_grid" />
  </defs>
  <metadata
     id="metadata7">
    <rdf:RDF>
      <cc:Work
         rdf:about="">
        <dc:format>image/svg+xml</dc:format>
        <dc:type
           rdf:resource="http://purl.org/dc/dcmitype/StillImage" />
        <dc:title></dc:title>
      </cc:Work>
    </rdf:RDF>
  </metadata>
  <g
     id="layer1"
     inkscape:groupmode="layer"
     inkscape:label="Layer 1">
    <path
       style="color:#000000;font-style:normal;font-variant:normal;font-weight:normal;font-stretch:normal;font-size:medium;line-height:normal;font-family:sans-serif;text-indent:0;text-align:start;text-decoration:none;text-decoration-line:none;text-decoration-style:solid;text-decoration-color:#000000;letter-spacing:normal;word-spacing:normal;text-transform:none;direction:ltr;block-progression:tb;writing-mode:lr-tb;baseline-shift:baseline;text-anchor:start;white-space:normal;clip-rule:nonzero;display:inline;overflow:visible;visibility:visible;opacity:1;isolation:auto;mix-blend-mode:normal;color-interpolation:sRGB;color-interpolation-filters:linearRGB;solid-color:#000000;solid-opacity:1;fill:#5fbcd3;fill-opacity:1;fill-rule:nonzero;stroke:none;stroke-width:25;stroke-linecap:round;stroke-linejoin:round;stroke-miterlimit:3.79999995;stroke-dasharray:none;stroke-dashoffset:0;stroke-opacity:1;color-rendering:auto;image-rendering:auto;shape-rendering:auto;text-rendering:auto;enable-background:accumulate"
       d="m 443.70253,438.45795 a 4.195367,4.195367 0 0 0 -2.68739,0.82588 l -37.66058,28.03951 a 4.195367,4.195367 0 0 0 -0.13874,0.1147 4.195367,4.195367 0 0 0 -0.13109,0.10815 4.195367,4.195367 0 0 0 -0.17151,0.16277 4.195367,4.195367 0 0 0 -0.13547,0.13765 4.195367,4.195367 0 0 0 -0.12999,0.15076 4.195367,4.195367 0 0 0 -0.14311,0.17698 4.195367,4.195367 0 0 0 -0.10597,0.15293 4.195367,4.195367 0 0 0 -0.12891,0.19555 4.195367,4.195367 0 0 0 -0.0929,0.16823 4.195367,4.195367 0 0 0 -0.10159,0.19337 4.195367,4.195367 0 0 0 -0.0797,0.18243 4.195367,4.195367 0 0 0 -0.0852,0.21521 4.195367,4.195367 0 0 0 -0.0524,0.16496 4.195367,4.195367 0 0 0 -0.0677,0.23705 4.195367,4.195367 0 0 0 -0.0328,0.15186 4.195367,4.195367 0 0 0 -0.0492,0.26764 4.195367,4.195367 0 0 0 -0.0153,0.14639 4.195367,4.195367 0 0 0 -0.024,0.29605 4.195367,4.195367 0 0 0 -0.001,0.0284 4.195367,4.195367 0 0 0 -0.003,0.11362 l 0,64.09748 -6.44646,-1.68453 c -0.32615,-0.11878 -0.69798,-0.21606 -1.09899,-0.28731 l -21.81482,-5.70032 0,-25.56952 a 3.3562936,3.3562936 0 0 0 -0.002,-0.0546 3.3562936,3.3562936 0 0 0 -0.004,-0.0754 3.3562936,3.3562936 0 0 0 -0.0186,-0.26437 3.3562936,3.3562936 0 0 0 -0.01,-0.0601 3.3562936,3.3562936 0 0 0 -0.0437,-0.26 3.3562936,3.3562936 0 0 0 -0.0295,-0.11252 3.3562936,3.3562936 0 0 0 -0.0579,-0.20866 3.3562936,3.3562936 0 0 0 -0.0426,-0.11689 3.3562936,3.3562936 0 0 0 -0.0754,-0.19227 3.3562936,3.3562936 0 0 0 -0.0623,-0.1289 3.3562936,3.3562936 0 0 0 -0.0885,-0.17261 3.3562936,3.3562936 0 0 0 -0.0656,-0.10706 3.3562936,3.3562936 0 0 0 -0.1158,-0.18134 3.3562936,3.3562936 0 0 0 -0.0688,-0.0907 3.3562936,3.3562936 0 0 0 -0.13656,-0.17042 3.3562936,3.3562936 0 0 0 -0.0885,-0.095 3.3562936,3.3562936 0 0 0 -0.14093,-0.1442 3.3562936,3.3562936 0 0 0 -0.10815,-0.0951 3.3562936,3.3562936 0 0 0 -0.14311,-0.12126 3.3562936,3.3562936 0 0 0 -0.12126,-0.0874 3.3562936,3.3562936 0 0 0 -0.1584,-0.10706 3.3562936,3.3562936 0 0 0 -0.12017,-0.0688 3.3562936,3.3562936 0 0 0 -0.16824,-0.0918 3.3562936,3.3562936 0 0 0 -0.15949,-0.071 3.3562936,3.3562936 0 0 0 -0.13874,-0.059 3.3562936,3.3562936 0 0 0 -0.0568,-0.0229 L 320.5404,480.65977 a 3.3562936,3.3562936 0 0 0 -0.98428,-0.19336 3.3562936,3.3562936 0 0 0 -1.9347,0.51345 l -35.72479,22.49322 a 3.3562936,3.3562936 0 0 0 -0.0142,0.01 l -22.42549,-5.85982 c -0.11782,-0.0467 -0.24796,-0.0886 -0.38891,-0.12453 l 0,0.001 c -0.46324,-0.11595 -1.02397,-0.16653 -1.61243,-0.14966 -0.19616,0.006 -0.39576,0.0184 -0.59538,0.0393 -0.0305,0.003 -0.0613,0.006 -0.0918,0.009 l -0.001,0 c -0.97547,0.10601 -1.8534,0.38464 -2.36622,0.7505 l -8.50569,4.50083 -18.0492,-6.45847 a 2.7969113,2.7969113 0 0 0 -0.82042,-0.16059 2.7969113,2.7969113 0 0 0 -1.48571,0.35177 l -33.47109,18.69155 a 2.7969113,2.7969113 0 0 0 -0.007,0.003 2.7969113,2.7969113 0 0 0 -0.2305,0.1453 2.7969113,2.7969113 0 0 0 -0.20101,0.15622 2.7969113,2.7969113 0 0 0 -0.0207,0.0164 2.7969113,2.7969113 0 0 0 -0.16059,0.15185 2.7969113,2.7969113 0 0 0 -0.0426,0.0404 2.7969113,2.7969113 0 0 0 -0.003,0.003 2.7969113,2.7969113 0 0 0 -0.17807,0.20756 2.7969113,2.7969113 0 0 0 -0.1158,0.16387 2.7969113,2.7969113 0 0 0 -0.047,0.0688 2.7969113,2.7969113 0 0 0 -0.001,0.001 2.7969113,2.7969113 0 0 0 -0.0481,0.0863 2.7969113,2.7969113 0 0 0 -0.0863,0.15513 2.7969113,2.7969113 0 0 0 -0.002,0.003 2.7969113,2.7969113 0 0 0 -0.10815,0.25016 2.7969113,2.7969113 0 0 0 -0.13,0.46648 2.7969113,2.7969113 0 0 0 -0.0153,0.0765 2.7969113,2.7969113 0 0 0 -0.001,0.003 2.7969113,2.7969113 0 0 0 -0.0295,0.27093 2.7969113,2.7969113 0 0 0 -0.005,0.17151 l 0,14.37425 -3.49907,1.85168 c -0.27874,0.11325 -0.52285,0.24261 -0.72429,0.38344 l -36.0678,19.08483 c -0.29089,0.11874 -0.54943,0.25561 -0.7658,0.40528 l -38.13142,20.17618 c -0.30398,0.12466 -0.57677,0.26999 -0.80949,0.42932 l -40.378553,21.36583 c -0.942141,0.38781 -1.60143,0.95566 -1.770839,1.52723 -0.0066,0.0184 -0.01177,0.0373 -0.01748,0.0557 -1.84e-4,0.001 -9.06e-4,0.001 -0.0011,0.002 -0.153474,0.56513 0.193599,1.06319 0.936217,1.34042 l 32.397224,18.70029 c 0.18789,0.16421 0.42995,0.30431 0.71664,0.41403 l 37.23125,21.49146 c 0.22233,0.18825 0.50125,0.35041 0.82697,0.47849 l 43.23527,24.95666 c 0.26588,0.2182 0.59269,0.40704 0.96681,0.55823 l 50.81894,29.33513 c 0.32194,0.25625 0.70854,0.47905 1.14379,0.65984 l 60.58968,34.97537 c 0.39567,0.30558 0.8591,0.57358 1.37319,0.79311 l 73.47822,42.41485 c 0.49515,0.37123 1.06281,0.69962 1.68125,0.97118 l 90.96809,52.51112 c 1.87847,1.3694 4.35957,2.23726 6.66057,2.3258 0.0715,0.006 0.14324,0.007 0.21412,0.01 l 0.001,0 0.001,0 c 2.26695,0.0685 4.06084,-0.63403 4.82855,-1.89101 l 52.39971,-50.37323 c 0.45698,-0.27054 0.80393,-0.60344 1.02688,-0.98647 l 47.24451,-45.41795 c 0.4243,-0.24744 0.73818,-0.54909 0.92857,-0.89252 l 42.81577,-41.15965 c 0.39561,-0.22736 0.68054,-0.50117 0.84336,-0.81058 l 38.98133,-37.47378 c 0.37023,-0.20982 0.62977,-0.45962 0.76908,-0.73957 l 35.64066,-34.26093 c 1.02935,-0.57464 1.05994,-1.4258 0.0863,-2.28536 -0.029,-0.0276 -0.0598,-0.0555 -0.0907,-0.083 -4.5e-4,-4e-4 -5.3e-4,-0.001 -0.001,-0.002 -0.002,-0.001 -0.003,-0.001 -0.004,-0.002 -0.98339,-0.84329 -2.81311,-1.58786 -4.92906,-2.00681 l -91.83112,-23.99749 c -0.53509,-0.18196 -1.11923,-0.33466 -1.73041,-0.45228 l -77.41535,-20.23078 c -0.44845,-0.15602 -0.94549,-0.28509 -1.47042,-0.38344 l -3.3789,-0.88269 0,-97.54346 a 4.195367,4.195367 0 0 0 -0.002,-0.0415 4.195367,4.195367 0 0 0 -0.008,-0.15403 4.195367,4.195367 0 0 0 -0.0186,-0.27093 4.195367,4.195367 0 0 0 -0.0229,-0.15075 4.195367,4.195367 0 0 0 -0.0415,-0.24908 4.195367,4.195367 0 0 0 -0.0535,-0.21084 4.195367,4.195367 0 0 0 -0.0524,-0.19445 4.195367,4.195367 0 0 0 -0.0656,-0.17697 4.195367,4.195367 0 0 0 -0.0863,-0.22505 4.195367,4.195367 0 0 0 -0.059,-0.12344 4.195367,4.195367 0 0 0 -0.12999,-0.25673 4.195367,4.195367 0 0 0 -0.0677,-0.11143 4.195367,4.195367 0 0 0 -0.15185,-0.23705 4.195367,4.195367 0 0 0 -0.10925,-0.1442 4.195367,4.195367 0 0 0 -0.14201,-0.18134 4.195367,4.195367 0 0 0 -0.13,-0.13984 4.195367,4.195367 0 0 0 -0.16386,-0.17042 4.195367,4.195367 0 0 0 -0.13547,-0.11798 4.195367,4.195367 0 0 0 -0.17697,-0.14967 4.195367,4.195367 0 0 0 -0.16933,-0.12235 4.195367,4.195367 0 0 0 -0.1737,-0.11907 4.195367,4.195367 0 0 0 -0.1726,-0.0994 4.195367,4.195367 0 0 0 -0.19664,-0.10815 4.195367,4.195367 0 0 0 -0.15404,-0.0688 4.195367,4.195367 0 0 0 -0.23378,-0.1005 4.195367,4.195367 0 0 0 -0.0655,-0.0251 L 444.9337,438.69828 a 4.195367,4.195367 0 0 0 -1.23117,-0.24033 z m 0.52,8.89678 59.6185,21.33196 -30.52808,25.04734 -58.99035,-24.11767 29.89993,-22.26163 z m 63.81127,28.74522 0,174.28478 -29.79943,24.44977 0,-174.28587 29.79943,-24.44868 z m -97.97934,0.83463 59.79002,24.44649 0,176.07309 -59.79002,-24.44541 0,-176.07417 z m -90.23835,10.59442 41.74629,14.93685 -11.69232,7.86334 -17.95744,12.07687 -0.001,0 -40.91712,-16.72954 28.82169,-18.14752 z m -62.42824,12.75963 22.94112,6.10671 0,9.67241 -13.22611,7.33897 0,-11.20072 a 2.7969113,2.7969113 0 0 0 -0.005,-0.0972 2.7969113,2.7969113 0 0 0 -0.005,-0.11908 2.7969113,2.7969113 0 0 0 -0.0175,-0.1584 2.7969113,2.7969113 0 0 0 -0.0175,-0.11361 2.7969113,2.7969113 0 0 0 -0.0339,-0.16277 2.7969113,2.7969113 0 0 0 -0.0273,-0.10924 2.7969113,2.7969113 0 0 0 -0.0535,-0.16497 2.7969113,2.7969113 0 0 0 -0.036,-0.0972 2.7969113,2.7969113 0 0 0 -0.0688,-0.15841 2.7969113,2.7969113 0 0 0 -0.0459,-0.0961 2.7969113,2.7969113 0 0 0 -0.0841,-0.15185 2.7969113,2.7969113 0 0 0 -0.0546,-0.0885 2.7969113,2.7969113 0 0 0 -0.11033,-0.15622 2.7969113,2.7969113 0 0 0 -0.0503,-0.0666 2.7969113,2.7969113 0 0 0 -0.11034,-0.12891 2.7969113,2.7969113 0 0 0 -0.0863,-0.0928 2.7969113,2.7969113 0 0 0 -0.11688,-0.11034 2.7969113,2.7969113 0 0 0 -0.083,-0.0732 2.7969113,2.7969113 0 0 0 -0.13437,-0.10377 2.7969113,2.7969113 0 0 0 -0.0874,-0.0634 2.7969113,2.7969113 0 0 0 -0.14858,-0.094 2.7969113,2.7969113 0 0 0 -0.0852,-0.0492 2.7969113,2.7969113 0 0 0 -0.16168,-0.0797 2.7969113,2.7969113 0 0 0 -0.1169,-0.0524 2.7969113,2.7969113 0 0 0 -0.0743,-0.0295 2.7969113,2.7969113 0 0 0 -0.0393,-0.0153 l -15.1324,-5.4141 7.27234,-3.8705 z m -30.23094,1.59605 30.56631,10.93636 -1.9784,1.16016 -26.12556,15.30719 -29.75135,-12.16425 27.289,-15.23946 z m 138.43546,5.96032 0,91.4717 -29.93598,20.13138 0,-91.47061 29.93598,-20.13247 z m -78.55149,3.46629 41.9036,17.13156 0,92.3096 -41.9036,-17.13265 0,-92.30851 z m -25.53128,5.77461 0,44.97552 -28.87303,16.91743 0,-44.97442 28.87303,-16.91853 z m 18.81937,3.35924 0,11.03358 -12.81317,-3.87814 12.81317,-7.15544 z m -84.09996,1.23554 30.81429,12.59795 0,45.41467 -30.81429,-12.59904 0,-45.41358 z m 176.07527,9.19283 14.64517,3.89781 -14.64517,9.14149 0,-13.0393 z m -105.20142,0.40202 13.22611,4.07696 0,18.92206 -11.25099,6.59284 -1.97512,-0.6937 0,-28.89816 z m 126.63498,5.30268 7.92671,2.10948 0,29.51102 -29.36027,-8.88476 0,-9.23981 21.43356,-13.49593 z m -204.78226,0.12672 1.68017,0.60084 0,28.53219 -2.06689,1.14706 -31.96135,-13.0677 32.34807,-17.21239 z m -37.09907,19.74028 31.80951,13.25997 -35.36429,19.6223 -30.65916,-14.67685 34.21394,-18.20542 z m 128.47246,3.17025 0,5.20217 -5.52663,-1.94016 5.52663,-3.26201 z m 91.97531,4.09116 29.36027,9.05082 0,6.34377 -27.667,18.60634 -1.69327,-0.59428 0,-33.40665 z m -105.21234,0.16169 a 2.7969113,2.7969113 0 0 1 -0.0109,0.12453 2.7969113,2.7969113 0 0 0 0.0109,-0.12453 z m -0.0328,0.27311 a 2.7969113,2.7969113 0 0 1 -0.0273,0.13655 2.7969113,2.7969113 0 0 0 0.0273,-0.13655 z m -0.059,0.26218 a 2.7969113,2.7969113 0 0 1 -0.0426,0.14311 2.7969113,2.7969113 0 0 0 0.0426,-0.14311 z m -0.0885,0.26983 a 2.7969113,2.7969113 0 0 1 -0.0568,0.13764 2.7969113,2.7969113 0 0 0 0.0568,-0.13764 z m -0.11034,0.24798 a 2.7969113,2.7969113 0 0 1 -0.071,0.13328 2.7969113,2.7969113 0 0 0 0.071,-0.13328 z m -0.14311,0.25017 a 2.7969113,2.7969113 0 0 1 -0.0797,0.11907 2.7969113,2.7969113 0 0 0 0.0797,-0.11907 z m -0.16604,0.2316 a 2.7969113,2.7969113 0 0 1 -0.083,0.1005 2.7969113,2.7969113 0 0 0 0.083,-0.1005 z m -0.18463,0.21084 a 2.7969113,2.7969113 0 0 1 -0.095,0.094 2.7969113,2.7969113 0 0 0 0.095,-0.094 z m 3.70444,0.0918 10.31696,3.69133 0,31.93076 -3.07193,1.91723 -41.85225,-17.1108 34.60722,-20.42852 z m -3.90435,0.0939 a 2.7969113,2.7969113 0 0 1 -0.11034,0.0885 2.7969113,2.7969113 0 0 0 0.11034,-0.0885 z m -0.22941,0.1737 a 2.7969113,2.7969113 0 0 1 -0.1584,0.10378 2.7969113,2.7969113 0 0 0 0.1584,-0.10378 z m -75.2425,2.99982 a 2.7969113,2.7969113 0 0 0 0.0131,0.25344 2.7969113,2.7969113 0 0 1 -0.0131,-0.25344 z m 0.0349,0.41513 a 2.7969113,2.7969113 0 0 0 0.0164,0.11033 2.7969113,2.7969113 0 0 1 -0.0164,-0.11033 z m 0.0601,0.29604 a 2.7969113,2.7969113 0 0 0 0.0208,0.0819 2.7969113,2.7969113 0 0 1 -0.0208,-0.0819 z m 0.0765,0.24253 a 2.7969113,2.7969113 0 0 0 0.0415,0.11361 2.7969113,2.7969113 0 0 1 -0.0415,-0.11361 z m 0.0961,0.23268 a 2.7969113,2.7969113 0 0 0 0.0645,0.13437 2.7969113,2.7969113 0 0 1 -0.0645,-0.13437 z m 329.74691,0.19664 69.11504,18.39441 -32.3874,26.57237 -40.95427,-12.39367 0,-29.4258 4.22663,-3.14731 z m -329.618,0.047 a 2.7969113,2.7969113 0 0 0 0.0797,0.13 2.7969113,2.7969113 0 0 1 -0.0797,-0.13 z m 0.16605,0.24798 a 2.7969113,2.7969113 0 0 0 0.0786,0.10269 2.7969113,2.7969113 0 0 1 -0.0786,-0.10269 z m 0.19773,0.23487 a 2.7969113,2.7969113 0 0 0 0.0634,0.0677 2.7969113,2.7969113 0 0 1 -0.0634,-0.0677 z m 0.18681,0.18135 a 2.7969113,2.7969113 0 0 0 0.094,0.0819 2.7969113,2.7969113 0 0 1 -0.094,-0.0819 z m 0.22176,0.17588 a 2.7969113,2.7969113 0 0 0 0.0907,0.0655 2.7969113,2.7969113 0 0 1 -0.0907,-0.0655 z m 0.23706,0.15294 a 2.7969113,2.7969113 0 0 0 0.0983,0.0568 2.7969113,2.7969113 0 0 1 -0.0983,-0.0568 z m -3.53403,0.32663 36.25243,15.11274 -36.71999,21.51549 -35.06386,-16.78525 35.53142,-19.84298 z m -75.89359,5.6042 30.48001,14.88987 -37.59176,20.85894 -29.135215,-16.46189 36.246965,-19.28692 z m 117.81466,9.26493 a 2.7969113,2.7969113 0 0 1 -0.0295,0.007 2.7969113,2.7969113 0 0 1 -0.22614,0.0371 2.7969113,2.7969113 0 0 1 -0.13109,0.01 2.7969113,2.7969113 0 0 1 -0.1431,0.01 2.7969113,2.7969113 0 0 1 -0.12782,-0.004 2.7969113,2.7969113 0 0 0 0.12782,0.003 2.7969113,2.7969113 0 0 0 0.1431,-0.01 2.7969113,2.7969113 0 0 0 0.13109,-0.01 2.7969113,2.7969113 0 0 0 0.22614,-0.0371 2.7969113,2.7969113 0 0 0 0.0295,-0.005 z m 171.2358,0.20101 0,20.62953 -20.01777,-7.02873 20.01777,-13.6008 z m -171.36143,2.3531 41.69604,17.38063 -38.09646,23.78011 -40.49217,-19.38415 36.89259,-21.77659 z m 370.18446,2.45907 82.04727,21.83667 -31.93623,30.09328 -82.47659,-24.95993 32.36555,-26.97002 z m -452.74408,2.88294 34.87815,17.0376 -39.20419,22.9728 -33.46344,-18.90785 37.78948,-21.10255 z m 224.54658,6.90308 a 3.3562936,3.3562936 0 0 1 -0.0262,0.20538 3.3562936,3.3562936 0 0 0 0.0262,-0.20538 z m -0.0459,0.33976 a 3.3562936,3.3562936 0 0 1 -0.0459,0.19554 3.3562936,3.3562936 0 0 0 0.0459,-0.19554 z m -0.0787,0.32117 a 3.3562936,3.3562936 0 0 1 -0.0601,0.17806 3.3562936,3.3562936 0 0 0 0.0601,-0.17806 z m -0.1158,0.32773 a 3.3562936,3.3562936 0 0 1 -0.0732,0.1595 3.3562936,3.3562936 0 0 0 0.0732,-0.1595 z m -0.13655,0.29277 a 3.3562936,3.3562936 0 0 1 -0.094,0.16168 3.3562936,3.3562936 0 0 0 0.094,-0.16168 z m -0.17807,0.29714 a 3.3562936,3.3562936 0 0 1 -0.0874,0.12127 3.3562936,3.3562936 0 0 0 0.0874,-0.12127 z m -0.20319,0.27311 a 3.3562936,3.3562936 0 0 1 -0.1005,0.11252 3.3562936,3.3562936 0 0 0 0.1005,-0.11252 z m -0.21958,0.24034 a 3.3562936,3.3562936 0 0 1 -0.12781,0.11798 3.3562936,3.3562936 0 0 0 0.12781,-0.11798 z m -0.25344,0.22723 a 3.3562936,3.3562936 0 0 1 -0.23815,0.17806 3.3562936,3.3562936 0 0 0 0.23815,-0.17806 z m 5.52335,0.12453 25.08229,8.97435 0,35.93125 -4.6931,3.451 -57.16162,-23.37153 36.77243,-24.98507 z m -96.25329,2.03849 a 3.3562936,3.3562936 0 0 0 0.0153,0.30588 3.3562936,3.3562936 0 0 1 -0.0153,-0.30588 z m 0.0382,0.48285 a 3.3562936,3.3562936 0 0 0 0.0229,0.15076 3.3562936,3.3562936 0 0 1 -0.0229,-0.15076 z m 0.0699,0.34412 a 3.3562936,3.3562936 0 0 0 0.0328,0.1289 3.3562936,3.3562936 0 0 1 -0.0328,-0.1289 z m 0.0918,0.3026 a 3.3562936,3.3562936 0 0 0 0.0568,0.15294 3.3562936,3.3562936 0 0 1 -0.0568,-0.15294 z m 0.12782,0.30697 a 3.3562936,3.3562936 0 0 0 0.0666,0.13983 3.3562936,3.3562936 0 0 1 -0.0666,-0.13983 z m 0.17916,0.32883 a 3.3562936,3.3562936 0 0 0 0.059,0.0961 3.3562936,3.3562936 0 0 1 -0.059,-0.0961 z m 0.17151,0.25016 a 3.3562936,3.3562936 0 0 0 0.095,0.12454 3.3562936,3.3562936 0 0 1 -0.095,-0.12454 z m 0.19008,0.23051 a 3.3562936,3.3562936 0 0 0 0.13219,0.14311 3.3562936,3.3562936 0 0 1 -0.13219,-0.14311 z m 235.22622,0.0142 36.13991,11.14064 -35.10865,28.8064 -1.03126,-0.36159 0,-39.58545 z m -234.97277,0.23815 a 3.3562936,3.3562936 0 0 0 0.12563,0.11034 3.3562936,3.3562936 0 0 1 -0.12563,-0.11034 z m 0.25672,0.20757 a 3.3562936,3.3562936 0 0 0 0.14202,0.10159 3.3562936,3.3562936 0 0 1 -0.14202,-0.10159 z m 0.28075,0.18461 a 3.3562936,3.3562936 0 0 0 0.14858,0.0852 3.3562936,3.3562936 0 0 1 -0.14858,-0.0852 z m -3.58318,0.4337 48.46585,20.20239 -39.44672,26.52867 -47.2871,-22.63742 38.26797,-24.09364 z m -90.43935,4.93889 40.30208,19.68786 -40.87998,25.51817 -38.83385,-21.94155 39.41175,-23.26448 z m 375.34292,8.45108 82.52467,25.43951 -34.89235,32.879 -82.7508,-29.05657 35.11848,-29.26194 z m -228.948,9.9346 57.02944,23.77246 -40.69427,29.92396 -55.94683,-26.78322 39.61166,-26.9132 z m -99.88563,4.33478 47.09812,23.00666 -42.5809,28.63598 -45.60913,-25.77052 41.09191,-25.87212 z m 281.92888,15.89928 a 4.195367,4.195367 0 0 1 -0.0317,0.23706 4.195367,4.195367 0 0 0 0.0317,-0.23706 z m -0.0568,0.39983 a 4.195367,4.195367 0 0 1 -0.0568,0.24143 4.195367,4.195367 0 0 0 0.0568,-0.24143 z m -0.1016,0.41841 a 4.195367,4.195367 0 0 1 -0.0699,0.19991 4.195367,4.195367 0 0 0 0.0699,-0.19991 z m -0.14092,0.39655 a 4.195367,4.195367 0 0 1 -0.0819,0.17588 4.195367,4.195367 0 0 0 0.0819,-0.17588 z m -0.18134,0.38235 a 4.195367,4.195367 0 0 1 -0.10815,0.18025 4.195367,4.195367 0 0 0 0.10815,-0.18025 z m -0.21085,0.34958 a 4.195367,4.195367 0 0 1 -0.13327,0.18135 4.195367,4.195367 0 0 0 0.13327,-0.18135 z m -0.25563,0.34303 a 4.195367,4.195367 0 0 1 -0.1431,0.15731 4.195367,4.195367 0 0 0 0.1431,-0.15731 z m -0.27857,0.30369 a 4.195367,4.195367 0 0 1 -0.2884,0.26219 4.195367,4.195367 0 0 0 0.2884,-0.26219 z m -113.51374,0.47521 a 4.195367,4.195367 0 0 0 0.0186,0.38016 4.195367,4.195367 0 0 1 -0.0186,-0.38016 z m 121.29625,0.38344 82.765,29.61262 -38.2789,36.06999 -82.72239,-33.82176 38.23629,-31.86085 z m -121.24928,0.20757 a 4.195367,4.195367 0 0 0 0.0317,0.20865 4.195367,4.195367 0 0 1 -0.0317,-0.20865 z m 0.0743,0.38672 a 4.195367,4.195367 0 0 0 0.059,0.2316 4.195367,4.195367 0 0 1 -0.059,-0.2316 z m 0.12781,0.42932 a 4.195367,4.195367 0 0 0 0.0677,0.18572 4.195367,4.195367 0 0 1 -0.0677,-0.18572 z m 0.17042,0.41076 a 4.195367,4.195367 0 0 0 0.0754,0.15404 4.195367,4.195367 0 0 1 -0.0754,-0.15404 z m 0.20319,0.37143 a 4.195367,4.195367 0 0 0 0.0874,0.14202 4.195367,4.195367 0 0 1 -0.0874,-0.14202 z m 0.22504,0.32882 a 4.195367,4.195367 0 0 0 0.1169,0.15512 4.195367,4.195367 0 0 1 -0.1169,-0.15512 z m 0.26328,0.31681 a 4.195367,4.195367 0 0 0 0.13328,0.1442 4.195367,4.195367 0 0 1 -0.13328,-0.1442 z m 0.2884,0.28512 a 4.195367,4.195367 0 0 0 0.16606,0.14639 4.195367,4.195367 0 0 1 -0.16606,-0.14639 z m 0.32555,0.26328 a 4.195367,4.195367 0 0 0 0.17151,0.12345 4.195367,4.195367 0 0 1 -0.17151,-0.12345 z m 0.35504,0.23269 a 4.195367,4.195367 0 0 0 0.18244,0.10487 4.195367,4.195367 0 0 1 -0.18244,-0.10487 z m -3.48268,0.55277 68.08269,28.38035 -41.69275,34.2063 -67.22622,-32.18312 40.83628,-30.40353 z m -111.39006,3.4357 55.76768,27.24313 -44.23376,32.52613 -54.32675,-30.69521 42.79283,-29.07405 z m 190.14692,29.39413 82.694,34.47067 -42.18326,39.74932 -82.29853,-39.39865 41.78779,-34.82134 z m -125.67363,2.10075 67.07655,32.76757 -45.70089,37.49562 -65.80715,-37.1821 44.43149,-33.08109 z m 77.63711,37.92714 82.21333,40.16006 -46.71686,44.02073 -81.35576,-45.96744 45.85929,-38.21335 z"
       id="rect4136"
       inkscape:connector-curvature="0" />
  </g>
</svg>
