<?xml version="1.0" encoding="UTF-8" standalone="no"?>
<!-- Created with Inkscape (http://www.inkscape.org/) -->

<svg
   xmlns:dc="http://purl.org/dc/elements/1.1/"
   xmlns:cc="http://creativecommons.org/ns#"
   xmlns:rdf="http://www.w3.org/1999/02/22-rdf-syntax-ns#"
   xmlns:svg="http://www.w3.org/2000/svg"
   xmlns="http://www.w3.org/2000/svg"
   xmlns:sodipodi="http://sodipodi.sourceforge.net/DTD/sodipodi-0.dtd"
   xmlns:inkscape="http://www.inkscape.org/namespaces/inkscape"
   width="210mm"
   height="297mm"
   viewBox="0 0 744.09448819 1052.3622047"
   id="svg2"
   version="1.1"
   inkscape:version="0.91 r13725"
   sodipodi:docname="battery.svg">
  <defs
     id="defs4" />
  <sodipodi:namedview
     id="base"
     pagecolor="#ffffff"
     bordercolor="#666666"
     borderopacity="1.0"
     inkscape:pageopacity="0.0"
     inkscape:pageshadow="2"
     inkscape:zoom="1.4142136"
     inkscape:cx="224.86654"
     inkscape:cy="775.24186"
     inkscape:document-units="px"
     inkscape:current-layer="layer1"
     showgrid="false"
     inkscape:object-nodes="false"
     inkscape:snap-intersection-paths="false"
     inkscape:object-paths="true"
     inkscape:window-width="1680"
     inkscape:window-height="1007"
     inkscape:window-x="1280"
     inkscape:window-y="0"
     inkscape:window-maximized="1" />
  <metadata
     id="metadata7">
    <rdf:RDF>
      <cc:Work
         rdf:about="">
        <dc:format>image/svg+xml</dc:format>
        <dc:type
           rdf:resource="http://purl.org/dc/dcmitype/StillImage" />
        <dc:title></dc:title>
      </cc:Work>
    </rdf:RDF>
  </metadata>
  <g
     inkscape:label="Layer 1"
     inkscape:groupmode="layer"
     id="layer1">
    <path
       style="color:#000000;font-style:normal;font-variant:normal;font-weight:normal;font-stretch:normal;font-size:medium;line-height:normal;font-family:sans-serif;text-indent:0;text-align:start;text-decoration:none;text-decoration-line:none;text-decoration-style:solid;text-decoration-color:#000000;letter-spacing:normal;word-spacing:normal;text-transform:none;direction:ltr;block-progression:tb;writing-mode:lr-tb;baseline-shift:baseline;text-anchor:start;white-space:normal;clip-rule:nonzero;display:inline;overflow:visible;visibility:visible;opacity:1;isolation:auto;mix-blend-mode:normal;color-interpolation:sRGB;color-interpolation-filters:linearRGB;solid-color:#000000;solid-opacity:1;fill:#000000;fill-opacity:1;fill-rule:nonzero;stroke:none;stroke-width:30;stroke-linecap:round;stroke-linejoin:round;stroke-miterlimit:4;stroke-dasharray:none;stroke-dashoffset:0;stroke-opacity:1;color-rendering:auto;image-rendering:auto;shape-rendering:auto;text-rendering:auto;enable-background:accumulate"
       d="M 205.5 129.18359 C 183.76679 129.18459 164.0959 131.45703 149.11133 135.41992 C 141.61904 137.40137 135.30443 139.73214 130.10742 142.9668 C 125.3069 145.95468 120.49579 150.43233 119.68359 157.10156 C 119.65889 157.22342 119.63709 157.34601 119.61719 157.46875 L 119.67773 157.17578 C 119.67673 157.18578 119.67483 157.19568 119.67383 157.20508 C 119.61693 157.49422 119.57281 157.78496 119.54297 158.07812 L 119.54297 158.09375 C 119.46947 158.84885 119.48655 159.61028 119.59375 160.36133 L 119.49805 159.69922 L 119.49805 172.46875 C 118.54667 172.70607 117.58698 172.93992 116.6582 173.18555 C 104.85375 176.30741 94.904942 179.98176 86.716797 185.07812 C 79.153349 189.78567 71.574576 196.83998 70.294922 207.34766 A 15.0015 15.0015 0 0 0 70.189453 207.92578 L 70.283203 207.46484 C 70.281503 207.47974 70.279144 207.49487 70.277344 207.50977 A 15.0015 15.0015 0 0 0 70.072266 208.88672 A 15.0015 15.0015 0 0 0 70.070312 208.91016 A 15.0015 15.0015 0 0 0 70.150391 212.48242 L 70.001953 211.44141 L 70.001953 465.86719 L 70.291016 464.42188 A 15.0015 15.0015 0 0 0 70.150391 469.48242 A 15.0015 15.0015 0 0 0 70.322266 470.61328 C 71.694536 481.04326 79.247587 488.01271 86.789062 492.69141 C 94.980127 497.7731 104.9319 501.44079 116.73242 504.55664 C 140.33346 510.78835 171.29651 514.35957 205.5 514.36133 A 15.0015 15.0015 0 0 0 205.50391 514.36133 C 239.13019 514.35233 269.67302 510.88428 293.13281 504.82617 C 304.86271 501.79712 314.81275 498.21458 323.03711 493.33984 C 330.46944 488.93456 337.82875 482.86367 340.12891 473.12305 A 15.0015 15.0015 0 0 0 340.9375 468.63281 A 15.0015 15.0015 0 0 0 340.94922 466.28516 L 340.99609 211.73828 L 340.75781 213.04688 A 15.0015 15.0015 0 0 0 340.99219 210.16211 A 15.0015 15.0015 0 0 0 340.96875 209.6582 A 15.0015 15.0015 0 0 0 340.86914 208.37695 A 15.0015 15.0015 0 0 0 340.71289 207.35156 C 339.43455 196.84133 331.85584 189.7863 324.29102 185.07812 C 316.10237 179.98171 306.15093 176.30741 294.3457 173.18555 C 293.41176 172.93857 292.44702 172.70343 291.49023 172.46484 L 291.49805 159.88867 L 291.34766 160.71875 C 291.45614 160.11465 291.50563 159.50236 291.49609 158.88867 C 291.49309 158.78199 291.48737 158.67488 291.48047 158.56836 C 291.47147 158.29651 291.45067 158.0259 291.41797 157.75586 C 291.39237 157.53784 291.35896 157.31925 291.31836 157.10352 C 290.507 150.43267 285.69787 145.95509 280.89648 142.9668 C 275.69915 139.73211 269.38342 137.40136 261.89062 135.41992 C 246.90508 131.45702 227.23421 129.18438 205.5 129.18359 z M 291.47852 187.95312 A 120.5 32 0 0 1 326 210.36133 A 120.5 32 0 0 1 205.5 242.36133 A 120.5 32 0 0 1 85 210.36133 A 120.5 32 0 0 1 119.49805 187.99023 L 119.49805 201.68359 L 119.68164 200.76562 C 119.47013 201.82348 119.44135 202.91055 119.59375 203.97852 C 119.62095 204.21907 119.65569 204.45753 119.70117 204.69531 C 120.57215 211.31522 125.36773 215.73941 130.1543 218.70898 C 135.35317 221.93433 141.66841 224.2626 149.1582 226.24023 C 164.13778 230.1955 183.79104 232.46177 205.5 232.46289 L 205.50195 232.46289 C 226.84455 232.45689 246.23116 230.25525 261.12109 226.41016 C 268.56605 224.48763 274.87961 222.21314 280.09961 219.11914 C 284.81691 216.32311 289.48931 212.47143 290.94922 206.28906 C 291.2646 205.3708 291.43617 204.40809 291.46094 203.4375 C 291.50214 202.94176 291.50535 202.44533 291.46875 201.94922 L 291.47852 187.95312 z M 85.001953 290.83203 L 85.025391 290.83203 C 85.017251 290.87503 85.009453 290.91794 85.001953 290.96094 L 85.001953 290.83203 z M 325.98242 290.83203 L 325.99609 290.83203 L 325.99609 290.94141 C 325.99139 290.90494 325.98742 290.86853 325.98242 290.83203 z M 85.001953 290.98438 C 85.030374 308.65193 138.97055 322.97042 205.5 322.9707 C 272.01721 322.97013 325.95141 308.6582 325.99609 290.99414 L 325.94922 466.98242 C 325.96902 467.1087 325.9859 467.235 326 467.36133 C 325.9845 467.45119 325.96752 467.54106 325.94922 467.63086 L 325.94922 468.28906 L 325.82617 468.28906 C 323.93763 485.58094 270.64207 499.34363 205.5 499.36133 C 139.2372 499.35793 85.417686 485.14723 85.025391 467.55078 L 85.001953 467.55078 L 85.001953 467.375 L 85 467.36133 L 85.001953 467.35156 L 85.001953 454.11523 L 85.025391 454.11523 C 85.248755 464.13426 102.8079 473.0507 130.10742 478.87695 L 130.10742 452.23242 C 102.80788 447.17673 85.248755 439.44015 85.025391 430.74609 L 85.001953 430.74609 L 85.001953 392.24414 L 85.025391 392.24414 C 85.248755 402.26317 102.8079 411.17961 130.10742 417.00586 L 130.10742 390.36133 C 102.80788 385.30564 85.248755 377.56906 85.025391 368.875 L 85.001953 368.875 L 85.001953 330.37305 L 85.025391 330.37305 C 85.248755 340.39208 102.8079 349.30852 130.10742 355.13477 L 130.10742 328.49023 C 102.80788 323.43455 85.248755 315.69796 85.025391 307.00391 L 85.001953 307.00391 L 85.001953 290.98438 z "
       id="path4190" />
  </g>
</svg>
