<?xml version="1.0" encoding="UTF-8" standalone="no"?>
<!-- Created with Inkscape (http://www.inkscape.org/) -->

<svg
   xmlns:dc="http://purl.org/dc/elements/1.1/"
   xmlns:cc="http://creativecommons.org/ns#"
   xmlns:rdf="http://www.w3.org/1999/02/22-rdf-syntax-ns#"
   xmlns:svg="http://www.w3.org/2000/svg"
   xmlns="http://www.w3.org/2000/svg"
   xmlns:xlink="http://www.w3.org/1999/xlink"
   xmlns:sodipodi="http://sodipodi.sourceforge.net/DTD/sodipodi-0.dtd"
   xmlns:inkscape="http://www.inkscape.org/namespaces/inkscape"
   width="744.09448819"
   height="1052.3622047"
   id="svg3045"
   version="1.1"
   inkscape:version="0.48.4 r9939"
   sodipodi:docname="lappis.svg">
  <defs
     id="defs3047">
    <filter
       inkscape:collect="always"
       id="filter3883">
      <feGaussianBlur
         inkscape:collect="always"
         stdDeviation="0.23122893"
         id="feGaussianBlur3885" />
    </filter>
    <filter
       inkscape:collect="always"
       id="filter3889"
       x="-0.0061240501"
       width="1.0122481"
       y="-0.29620532"
       height="1.5924106">
      <feGaussianBlur
         inkscape:collect="always"
         stdDeviation="0.2281793"
         id="feGaussianBlur3891" />
    </filter>
    <filter
       inkscape:collect="always"
       id="filter4003"
       x="-0.27073616"
       width="1.5414723"
       y="-0.0061359844"
       height="1.012272">
      <feGaussianBlur
         inkscape:collect="always"
         stdDeviation="0.15444641"
         id="feGaussianBlur4005" />
    </filter>
    <filter
       inkscape:collect="always"
       id="filter3855"
       x="-0.24"
       width="1.48"
       y="-0.24"
       height="1.48">
      <feGaussianBlur
         inkscape:collect="always"
         stdDeviation="6"
         id="feGaussianBlur3857" />
    </filter>
    <filter
       color-interpolation-filters="sRGB"
       inkscape:collect="always"
       id="filter3855-8"
       x="-0.23999999"
       width="1.48"
       y="-0.23999999"
       height="1.48">
      <feGaussianBlur
         inkscape:collect="always"
         stdDeviation="6"
         id="feGaussianBlur3857-9" />
    </filter>
  </defs>
  <sodipodi:namedview
     id="base"
     pagecolor="#ffffff"
     bordercolor="#666666"
     borderopacity="1.0"
     inkscape:pageopacity="0.0"
     inkscape:pageshadow="2"
     inkscape:zoom="0.34999999"
     inkscape:cx="-1322.2816"
     inkscape:cy="714.66597"
     inkscape:document-units="px"
     inkscape:current-layer="layer1"
     showgrid="false"
     inkscape:window-width="757"
     inkscape:window-height="689"
     inkscape:window-x="605"
     inkscape:window-y="0"
     inkscape:window-maximized="0"
     showguides="true"
     inkscape:guide-bbox="true" />
  <metadata
     id="metadata3050">
    <rdf:RDF>
      <cc:Work
         rdf:about="">
        <dc:format>image/svg+xml</dc:format>
        <dc:type
           rdf:resource="http://purl.org/dc/dcmitype/StillImage" />
        <dc:title />
      </cc:Work>
    </rdf:RDF>
  </metadata>
  <g
     inkscape:label="Layer 1"
     inkscape:groupmode="layer"
     id="layer1">
    <path
       style="fill:#000000;stroke:#000000;stroke-width:1px;stroke-linecap:butt;stroke-linejoin:miter;stroke-opacity:1"
       d="m -1854.2857,563.79075 337.1428,8.57143 -17.1428,137.14285 -137.1429,105.71429 -157.1429,-125.71429 z"
       id="path3826"
       inkscape:connector-curvature="0" />
    <path
       style="fill:#b3b3b3;stroke:#b3b3b3;stroke-width:1px;stroke-linecap:butt;stroke-linejoin:miter;stroke-opacity:1"
       d="m -1257.176,242.71932 85.1465,0 c 20.7962,2.77707 17.8786,57.08083 0.2525,58.17857 l -85.399,0 z"
       id="path3015"
       inkscape:connector-curvature="0"
       sodipodi:nodetypes="ccccc" />
    <path
       style="fill:#000000;stroke:#000000;stroke-width:1px;stroke-linecap:butt;stroke-linejoin:miter;stroke-opacity:1"
       d="m -2148.6884,286.45363 49.6236,-4.92449 -1.0101,-18.05648 -46.3407,10.73287 -2.8694,4.95439 z"
       id="path3815"
       inkscape:connector-curvature="0"
       sodipodi:nodetypes="cccccc" />
    <path
       style="fill:#ffffff;stroke:#000000;stroke-width:7;stroke-linecap:butt;stroke-linejoin:miter;stroke-miterlimit:4;stroke-opacity:1;stroke-dasharray:none"
       d="m -1738.3065,833.01916 c -12.048,-19.1323 -61.3735,-65.06791 -91.5714,-100.28571 -30.198,-35.2178 -14.192,-85.55096 -30,-116.42857 -23.6652,-28.02047 32.1428,-28.57143 32.1428,-28.57143 0,0 2.8669,53.87588 16.2991,83.36876 5.6946,12.50361 17.9754,16.17789 25.1295,21.63124 32.1541,84.02478 108.9127,70 108.9127,70 0,0 76.7585,14.02478 108.9127,-69.99999 7.1541,-5.45335 19.4349,-9.12763 25.1295,-21.63124 13.4321,-29.49288 16.2991,-83.36876 16.2991,-83.36876 0,0 55.808,0.55096 32.1428,28.57143 -15.8081,30.87761 0.198,81.21077 -30,116.42857 -30.1979,35.2178 -79.5234,81.15337 -91.5714,100.28567 -12.048,19.1323 -60.9127,11.1429 -60.9127,11.1429 0,0 -48.8647,7.98943 -60.9127,-11.14287 z"
       id="path5355"
       inkscape:connector-curvature="0"
       sodipodi:nodetypes="zzccscccscczzcz" />
    <path
       style="fill:#ffffff;stroke:#000000;stroke-width:3;stroke-linecap:butt;stroke-linejoin:miter;stroke-miterlimit:4;stroke-opacity:1;stroke-dasharray:none"
       d="m -1697.8648,675.94703 c -11.6137,7.01564 -14.8777,28.14446 -12.5914,40.45301 2.2863,12.30857 33.0812,8.8519 30.1017,-3.43616 -2.9795,-12.28808 3.6361,-35.61385 -17.5103,-37.01685 z"
       id="path5357"
       inkscape:connector-curvature="0"
       sodipodi:nodetypes="czzc" />
    <path
       style="fill:#ffffff;stroke:#000000;stroke-width:3;stroke-linecap:butt;stroke-linejoin:miter;stroke-miterlimit:4;stroke-opacity:1;stroke-dasharray:none"
       d="m -1681.5905,728.6489 c -6.6368,0.0492 -11.2164,-2.0205 -16.1828,-0.75761 -1.6724,9.81429 5.0711,30.51651 5.0711,30.51651 0,0 20.3487,7.75684 16.0555,-1.11947 -4.2931,-8.87631 1.693,-28.68866 -4.9438,-28.63943 z"
       id="path5359"
       inkscape:connector-curvature="0"
       sodipodi:nodetypes="zcczz" />
    <path
       style="fill:#ffffff;stroke:#000000;stroke-width:3;stroke-linecap:butt;stroke-linejoin:miter;stroke-miterlimit:4;stroke-opacity:1;stroke-dasharray:none"
       d="m -1727.7222,682.12616 c -12.3799,1.37053 -13.5039,19.22734 -12.157,29.49116 1.347,10.26384 26.8826,8.72262 24.9634,-1.55386 -1.9192,-10.27649 -0.045,-28.46104 -12.8064,-27.9373 z"
       id="path5357-3"
       inkscape:connector-curvature="0"
       sodipodi:nodetypes="czzc" />
    <path
       style="fill:#ffffff;stroke:#000000;stroke-width:3;stroke-linecap:butt;stroke-linejoin:miter;stroke-miterlimit:4;stroke-opacity:1;stroke-dasharray:none"
       d="m -1703.1469,730.44772 c -4.1368,-1.0222 -11.2163,-2.0205 -16.1827,-0.75761 0.8275,8.38572 5.0711,28.51651 5.0711,28.51651 0,0 18.92,4.54255 14.6269,-4.33376 -4.2932,-8.87631 0.6216,-22.40294 -3.5153,-23.42514 z"
       id="path5359-1"
       inkscape:connector-curvature="0"
       sodipodi:nodetypes="zcczz" />
    <path
       style="fill:#ffffff;stroke:#000000;stroke-width:3;stroke-linecap:butt;stroke-linejoin:miter;stroke-miterlimit:4;stroke-opacity:1;stroke-dasharray:none"
       d="m -1658.9081,675.36022 c 11.9005,6.51748 15.0665,26.90838 13.3035,39.30272 -1.763,12.39435 -33.391,12.38789 -30.2203,-2.15821 3.1707,-14.5461 -0.2319,-35.28583 16.9168,-37.14451 z"
       id="path5357-9"
       inkscape:connector-curvature="0"
       sodipodi:nodetypes="czzc" />
    <path
       style="fill:#ffffff;stroke:#000000;stroke-width:3;stroke-linecap:butt;stroke-linejoin:miter;stroke-miterlimit:4;stroke-opacity:1;stroke-dasharray:none"
       d="m -1633.621,682.50501 c 15.237,2.08481 17.7896,21.01305 16.4426,31.27687 -1.3469,10.26384 -26.8826,8.72262 -24.9633,-1.55386 1.9192,-10.27649 -3.526,-25.96104 8.5207,-29.72301 z"
       id="path5357-3-4"
       inkscape:connector-curvature="0"
       sodipodi:nodetypes="czzc" />
    <path
       style="fill:#ffffff;stroke:#000000;stroke-width:3;stroke-linecap:butt;stroke-linejoin:miter;stroke-miterlimit:4;stroke-opacity:1;stroke-dasharray:none"
       d="m -1668.2228,728.99516 c 4.4939,-1.0222 11.2164,-2.0205 16.1827,-0.75761 -0.8275,8.38572 -5.071,30.51651 -5.071,30.51651 0,0 -19.9915,7.04255 -15.6983,-1.83376 4.2931,-8.87631 0.093,-26.90294 4.5866,-27.92514 z"
       id="path5359-3"
       inkscape:connector-curvature="0"
       sodipodi:nodetypes="zcczz" />
    <path
       style="fill:#ffffff;stroke:#000000;stroke-width:3;stroke-linecap:butt;stroke-linejoin:miter;stroke-miterlimit:4;stroke-opacity:1;stroke-dasharray:none"
       d="m -1646.4179,730.6993 c 4.1369,-1.0222 11.2164,-2.0205 16.1828,-0.75761 -0.8276,8.38572 -5.0711,28.51651 -5.0711,28.51651 0,0 -18.9201,4.54255 -14.6269,-4.33376 4.2931,-8.87631 -0.6216,-22.40294 3.5152,-23.42514 z"
       id="path5359-1-3"
       inkscape:connector-curvature="0"
       sodipodi:nodetypes="zcczz" />
    <path
       style="fill:#f2f2f2;stroke:none"
       d="m -1546.5436,737.19458 -22.7083,37.79407 c 60.8027,-58.99669 58.2191,-72.73562 65.5426,-152.96197 4.2975,-15.19923 31.9502,-25.88535 24.846,-36.35498 -8.4618,-12.47038 -45.2044,0.75762 -45.2044,0.75762 11.0845,58.16293 -3.8965,95.91189 -22.4759,150.76526 z"
       id="path3091"
       inkscape:connector-curvature="0"
       sodipodi:nodetypes="cccscc" />
    <path
       style="fill:#e6e6e6;stroke:none"
       d="m -1861.8375,606.75863 31.5673,-15.5311 c -0.095,7.90189 1.075,16.56404 1.7678,25.7589 -8.0643,13.80198 -12.5054,21.61335 -18.9404,47.3509 -1.2459,-13.81985 -4.4246,-42.04012 -14.3947,-57.5787 z"
       id="path3093"
       inkscape:connector-curvature="0"
       sodipodi:nodetypes="ccccc" />
    <path
       style="fill:#ffffff;stroke:#000000;stroke-width:6.9000001;stroke-linecap:butt;stroke-linejoin:miter;stroke-miterlimit:4;stroke-opacity:1;stroke-dasharray:none"
       d="m -1658.3246,675.4544 c 5.8424,0.87243 7.7772,8.58778 12.6522,9.94749 2.9593,0.82541 8.3131,-4.84626 13.7115,-4.75568 4.7314,0.0794 5.6981,2.76493 10.4516,3.0904 5.1124,0.35004 6.3973,-6.62967 13.4917,-7.07931 4.3652,-0.27667 9.986,4.11617 13.832,4.41248 11.7002,0.90141 20.5194,2.20176 20.3647,-8.41726 -0.1548,-10.61902 6.4981,-60.47574 26.2639,-77.36332 19.7658,-16.88758 38.5542,8.73462 59.5013,11.30888 13.6187,1.67365 25.3515,-9.28858 25.3515,-9.28858 0,0 90.616,-147.33675 77.9551,-330.20604 -17.6531,-195.906252 -164.3438,-280.956111 -291.2717,-273.6621248 -106.9278,-3.7225472 -282.19,77.7558828 -299.8431,273.6621248 -12.6609,182.86929 77.955,330.20604 77.955,330.20604 0,0 11.7329,10.96223 25.3516,9.28858 20.9471,-2.57426 39.7355,-28.19646 59.5013,-11.30888 19.7658,16.88758 26.4187,66.7443 26.2639,77.36332 -0.1547,10.61902 8.6645,9.31867 20.3646,8.41726 3.8461,-0.29631 9.4669,-4.68915 13.8321,-4.41248 7.0944,0.44964 8.3793,7.42935 13.4917,7.07931 4.7535,-0.32547 5.7202,-3.011 10.4516,-3.0904 5.3984,-0.0906 10.7522,5.58109 13.7115,4.75568 4.875,-1.35971 6.8097,-9.07506 12.6522,-9.94749 7.4937,-1.119 21.9819,5.27934 21.9819,5.27934 0,0 14.4882,-6.39834 21.9819,-5.27934 z"
       id="path4583-2"
       inkscape:connector-curvature="0"
       sodipodi:nodetypes="sssssszzscccccszzsssssscs" />
    <path
       style="fill:#000000;stroke:#000000;stroke-width:4.5999999;stroke-linecap:butt;stroke-linejoin:miter;stroke-miterlimit:4;stroke-opacity:1;stroke-dasharray:none"
       d="m -1764.2498,427.44182 c 50.9191,15.54242 55.4828,74.17525 23.3685,73.34589 -78.3602,1.36786 -146.7523,24.87296 -137.9166,-77.85637 9.205,-54.98886 37.4742,-35.95529 114.5481,4.51048 z"
       id="path4579"
       inkscape:connector-curvature="0"
       sodipodi:nodetypes="cccc" />
    <path
       style="fill:#000000;stroke:#000000;stroke-width:8.80000019;stroke-linecap:butt;stroke-linejoin:miter;stroke-miterlimit:4;stroke-opacity:1;stroke-dasharray:none"
       d="m -1657.7829,603.08619 c 6.8516,-1.80059 41.8341,-15.47636 27.422,-34.29878 -14.4121,-18.82242 -34.8756,-68.14296 -51.7746,-57.04824 -29.8246,19.58075 -34.0795,42.26643 -51.7745,57.04824 -17.695,14.78181 21.1476,32.75672 28.9373,34.80386 7.7897,2.04714 4.9962,-12.04556 10.9608,-18.41151 4.996,-5.33212 12.3815,-24.70072 12.3815,-24.70072 0,0 10.1621,16.43395 14.6015,28.50733 2.6812,7.2917 2.3944,15.90041 9.246,14.09982 z"
       id="path4581-2"
       inkscape:connector-curvature="0"
       sodipodi:nodetypes="zzszzscsz" />
    <path
       style="fill:#cccccc;stroke:none"
       d="m -2057.6348,242.56494 -68.5867,27.50826 c 12.768,0.59777 12.8815,6.06265 8.2248,13.36223 l 67.6243,17.81679 18.5041,0.0978 -4.9007,-58.3442 z"
       id="path3813"
       inkscape:connector-curvature="0"
       sodipodi:nodetypes="ccccccc" />
    <path
       style="fill:#000000;stroke:none"
       d="m -1436.4369,232.1183 4.7982,17.1726 17.4251,-0.50508 -0.2526,-14.39468 z"
       id="path3830"
       inkscape:connector-curvature="0"
       sodipodi:nodetypes="ccccc" />
    <path
       style="fill:#b3b3b3;stroke:none;stroke-width:1.60000001999999997;stroke-linecap:butt;stroke-linejoin:miter;stroke-miterlimit:4;stroke-opacity:1;stroke-dasharray:none"
       d="m -2055.9338,242.15223 732.4063,-0.26206 c 0,0 5.1786,-0.0309 5,28.98397 -0.1786,29.01489 -5,31.23323 -5,31.23323 l -725.9777,-0.5087 c 9.8344,-3.62744 7.6042,-13.29717 2.6172,-20.09345 4.8909,-6.67399 1.3411,-17.07401 -4.2993,-22.12718 1.6527,-6.41141 0.9615,-12.48728 -4.7465,-17.22581 z"
       id="path3007"
       inkscape:connector-curvature="0"
       sodipodi:nodetypes="cczccccc" />
    <path
       style="fill:none;stroke:#000000;stroke-width:1px;stroke-linecap:butt;stroke-linejoin:miter;stroke-opacity:1"
       d="m -2046.888,281.90397 727.1909,0"
       id="path3817"
       inkscape:connector-curvature="0"
       sodipodi:nodetypes="cc" />
    <path
       style="fill:none;stroke:#000000;stroke-width:1px;stroke-linecap:butt;stroke-linejoin:miter;stroke-opacity:1"
       d="m -2051.1873,258.69752 732.7759,0"
       id="path3819"
       inkscape:connector-curvature="0"
       sodipodi:nodetypes="cc" />
    <path
       style="fill:#666666;stroke:none"
       d="m -2042.5285,289.697 725.2896,0 2.0834,11.74303 -733.873,0.0919 c 4.5106,-2.36122 8.4552,-5.22678 6.8125,-11.74565 z"
       id="path3021"
       inkscape:connector-curvature="0"
       sodipodi:nodetypes="cccccc" />
    <path
       style="fill:#808080;stroke:none"
       d="m -1325.4339,253.77979 0.2084,-11.02875 -729.0516,-0.003 c 2.263,2.23635 2.58,1.63153 3.8661,5.94208 243.0548,-0.97604 481.8307,-0.98215 724.62,-0.98215 z"
       id="path3021-0"
       inkscape:connector-curvature="0"
       sodipodi:nodetypes="cccccc" />
    <path
       style="fill:#cccccc;stroke:#cccccc;stroke-width:1px;stroke-linecap:butt;stroke-linejoin:miter;stroke-opacity:1"
       d="m -1331.0963,302.10737 89.7773,0.25616 c -1.6898,-19.33753 -3.2234,-39.13889 -0.7576,-60.48287 l -89.3768,0.36714 c 2.6674,18.2863 2.5201,36.40369 0.3571,59.86006 z"
       id="path3821"
       inkscape:connector-curvature="0"
       sodipodi:nodetypes="cccccc" />
    <text
       xml:space="preserve"
       style="font-size:144px;font-style:normal;font-variant:normal;font-weight:normal;font-stretch:normal;line-height:484.9998951%;letter-spacing:0px;word-spacing:1.66000009px;fill:#000000;fill-opacity:1;stroke:none;font-family:Garuda;-inkscape-font-specification:Garuda"
       x="-2092.3169"
       y="1001.8545"
       id="text3827"
       sodipodi:linespacing="179.99997282%"><tspan
         sodipodi:role="line"
         id="tspan3829"
         x="-2092.3169"
         y="1001.8545"
         style="font-size:200px;font-style:normal;font-variant:normal;font-weight:bold;font-stretch:normal;letter-spacing:29.23005103999999932px;word-spacing:0.81000008px;font-family:Garuda;-inkscape-font-specification:Garuda Bold;line-height:179.99997281999998222%">LAPPIS</tspan></text>
    <path
       sodipodi:type="arc"
       style="fill:none;stroke:none"
       id="path3831"
       sodipodi:cx="292.94424"
       sodipodi:cy="573.54987"
       sodipodi:rx="818.22357"
       sodipodi:ry="632.35547"
       d="m 1111.1678,573.54987 a 818.22357,632.35547 0 1 1 -1636.44713,0 818.22357,632.35547 0 1 1 1636.44713,0 z"
       transform="matrix(0.94074074,0,0,1.2683706,-1955.8911,-162.69871)" />
    <path
       style="fill:#000000;stroke:#000000;stroke-width:1px;stroke-linecap:butt;stroke-linejoin:miter;stroke-opacity:1"
       d="m -1418.2143,302.00503 19.2857,0 -0.1786,5.98214 -19.375,-1.07143 z"
       id="path3832"
       inkscape:connector-curvature="0" />
    <text
       xml:space="preserve"
       style="font-size:40px;font-style:normal;font-weight:normal;line-height:480.00001907%;letter-spacing:0px;word-spacing:0px;fill:#000000;fill-opacity:1;stroke:none;font-family:Sans"
       id="text3833"
       sodipodi:linespacing="480.00002%"
       transform="matrix(-0.21875381,0.79024265,-0.79024265,-0.21875381,-1603.5566,2027.2793)"><textPath
         xlink:href="#path3831"
         id="textPath3843"
         style="font-size:150px;font-style:normal;font-variant:normal;font-weight:bold;font-stretch:normal;line-height:480.00001907%;letter-spacing:23.12000084px;word-spacing:11.88000011px;stroke:none;font-family:TeX Gyre Heros;-inkscape-font-specification:TeX Gyre Heros Bold"
         dx="36.009998">100110010000011010000101000010010011010011</textPath></text>
    <path
       style="fill:#000000;stroke:#000000;stroke-width:4.5999999;stroke-linecap:butt;stroke-linejoin:miter;stroke-miterlimit:4;stroke-opacity:1;stroke-dasharray:none"
       d="m -1580.0911,427.44182 c -50.9191,15.54242 -55.4828,74.17525 -23.3685,73.34589 78.3602,1.36786 146.7523,24.87296 137.9166,-77.85637 -9.205,-54.98886 -37.4742,-35.95529 -114.5481,4.51048 z"
       id="path4579-1"
       inkscape:connector-curvature="0"
       sodipodi:nodetypes="cccc" />
    <path
       style="fill:#cccccc;stroke:#b3b3b3;stroke-width:1px;stroke-linecap:butt;stroke-linejoin:miter;stroke-opacity:1"
       d="m -1303.0968,301.81883 c 6.8605,-20.03469 5.2135,-40.06939 0,-60.10408"
       id="path3017"
       inkscape:connector-curvature="0"
       sodipodi:nodetypes="cc" />
    <path
       style="fill:none;stroke:#999999;stroke-width:1px;stroke-linecap:butt;stroke-linejoin:miter;stroke-opacity:1"
       d="m -1273.2249,302.60839 c 5.2262,-23.59936 4.3557,-44.01097 0.1786,-60.89364"
       id="path3019"
       inkscape:connector-curvature="0"
       sodipodi:nodetypes="cc" />
    <path
       style="fill:#b3b3b3;stroke:none"
       d="m -2047.8572,281.60325 -66.6964,-4.82143 c -0.2912,1.79548 -0.1752,2.62629 -2.5893,6.29464 l 67.4107,17.58929 c 10.9962,-4.82984 4.8691,-14.65467 1.875,-19.0625 z"
       id="path3026"
       inkscape:connector-curvature="0"
       sodipodi:nodetypes="ccccc" />
    <path
       style="fill:#666666;stroke:none"
       d="m -2055,282.98717 c 15.5487,3.24587 12.4243,16.77006 3.5714,16.51786 l -18.125,-5 c 3.0357,-5.47322 -10.5163,-10.11705 -21.0714,-14.91071 12.1407,1.18284 23.496,2.09332 35.625,3.39285 z"
       id="path3028"
       inkscape:connector-curvature="0"
       sodipodi:nodetypes="ccccc" />
    <path
       style="fill:#999999;stroke:none"
       d="m -2052.1429,259.77288 -71.4286,10 66.6965,-27.05357 c 4.2494,4.49734 7.9936,8.8008 4.7321,17.05357 z"
       id="path3048"
       inkscape:connector-curvature="0"
       sodipodi:nodetypes="cccc" />
    <path
       style="fill:#808080;stroke:none"
       d="m -2057.1429,242.71931 -56.3392,22.67857 c 9.8299,-1.07194 77.1853,-9.49168 56.3392,-22.67857 z"
       id="path3050"
       inkscape:connector-curvature="0"
       sodipodi:nodetypes="ccc" />
    <path
       style="fill:#b3b3b3;stroke:none"
       d="m -2055.0893,263.34431 c 4.7992,-0.16745 10.1291,9.98007 5.0893,15.71429 l -54.1072,-8.30357 z"
       id="path3052"
       inkscape:connector-curvature="0"
       sodipodi:nodetypes="cccc" />
    <path
       style="fill:#e6e6e6;stroke:none"
       d="m -1319.6862,301.62994 c 13.1879,-6.09341 17.803,-17.76589 20.4852,-30.69634 0.3861,8.01667 -0.6721,19.03449 -4.4119,30.79908 z"
       id="path3054"
       inkscape:connector-curvature="0"
       sodipodi:nodetypes="cccc" />
    <path
       style="fill:#e6e6e6;stroke:none"
       d="m -1273.8154,241.69943 -13.5476,0.0153 c 5.5421,12.27049 15.1233,29.89813 15.8569,45.47218 2.8029,-16.47075 -0.2066,-36.43261 -2.3093,-45.4875 z"
       id="path3056"
       inkscape:connector-curvature="0"
       sodipodi:nodetypes="cccc" />
    <path
       style="fill:#000000;stroke:#000000;stroke-width:1px;stroke-linecap:butt;stroke-linejoin:miter;stroke-opacity:1"
       d="m -1958.9384,302.45018 3.5356,8.33375 14.8997,0.63135 1.6416,-8.83884 z"
       id="path3038"
       inkscape:connector-curvature="0"
       sodipodi:nodetypes="ccccc" />
    <path
       style="fill:#ffffff;stroke:none"
       d="m -1906.0534,229.68577 8.0156,14.21488 13.5504,-0.61316 -3.8565,7.50565 -0.9553,-1.34491 -0.4169,1.97163 -2.6259,-0.39945 0.9798,2.10252 -0.069,2.49392 1.0128,1.79608 -8.8165,23.93909 -16.0182,1.94558 11.1213,11.46352 -12.9794,1.08868 -19.6365,-8.83067 3.6007,13.35934 -8.1028,-3.7087 -2.2207,10.01899 -6.249,5.01156 -9.8225,-9.3852 10.9705,38.61848 550.0001,-11.42857 0.019,-13.22803 0.395,-13.5016 -14.0897,2.89784 -12.6523,-13.36114 9.7216,-6.28433 -6.7632,-3.5603 -0.9166,-7.24816 -24.4854,-3.98123 16.2088,-0.23135 8.2766,-2.01786 -8.0812,-7.07107 15.3583,-6.787 -13.3783,-8.90634 5.9382,-12.19276 8.6795,7.10706 4.8239,-7.3937 -7.0269,-8.69163 z"
       id="path3828"
       inkscape:connector-curvature="0"
       sodipodi:nodetypes="cccccccccccccccccccccccccccccccccccccccc" />
    <path
       style="fill:none;stroke:#000000;stroke-width:1px;stroke-linecap:butt;stroke-linejoin:miter;stroke-opacity:1"
       d="m -1420.2745,236.66399 -10.1015,-8.5863 -10.1016,3.03046 -3.0304,-16.66752 -17.1726,-7.57614"
       id="path3834"
       inkscape:connector-curvature="0" />
    <path
       style="fill:none;stroke:#000000;stroke-width:1px;stroke-linecap:butt;stroke-linejoin:miter;stroke-opacity:1"
       d="m -1446.9804,271.26171 -25.317,1.76777 -27.7792,-9.09137"
       id="path3836"
       inkscape:connector-curvature="0"
       sodipodi:nodetypes="ccc" />
    <path
       style="fill:none;stroke:#000000;stroke-width:1px;stroke-linecap:butt;stroke-linejoin:miter;stroke-opacity:1"
       d="m -1410.1206,304.20897 -6.8709,2.53435 -4.4194,6.18719 -1.6415,7.95495 -4.7982,0.50508"
       id="path3838"
       inkscape:connector-curvature="0"
       sodipodi:nodetypes="ccccc" />
    <path
       style="fill:none;stroke:#000000;stroke-width:1px;stroke-linecap:butt;stroke-linejoin:miter;stroke-opacity:1"
       d="m -1414.9554,241.60324 6.3393,-4.55357 2.9464,-5.9375 3.7054,-1.5625"
       id="path3840"
       inkscape:connector-curvature="0" />
    <path
       style="fill:none;stroke:#000000;stroke-width:1px;stroke-linecap:butt;stroke-linejoin:miter;stroke-opacity:1"
       d="m -1406.9643,303.79074 9.8214,3.03572 3.0357,10.17857 3.9286,1.78571"
       id="path3842"
       inkscape:connector-curvature="0" />
    <path
       style="fill:none;stroke:#000000;stroke-width:1px;stroke-linecap:butt;stroke-linejoin:miter;stroke-opacity:1"
       d="M -1393.9286,316.82646 -1390,313.79074"
       id="path3844"
       inkscape:connector-curvature="0" />
    <path
       style="fill:none;stroke:#000000;stroke-width:1px;stroke-linecap:butt;stroke-linejoin:miter;stroke-opacity:1"
       d="m -1423.75,321.11217 5.5357,10.89286"
       id="path3846"
       inkscape:connector-curvature="0" />
    <path
       style="fill:none;stroke:#000000;stroke-width:1px;stroke-linecap:butt;stroke-linejoin:miter;stroke-opacity:1"
       d="m -1440.5357,230.39788 -19.1072,8.03572"
       id="path3848"
       inkscape:connector-curvature="0" />
    <path
       style="fill:none;stroke:#000000;stroke-width:1px;stroke-linecap:butt;stroke-linejoin:miter;stroke-opacity:1"
       d="m -1890.5005,257.37212 28.2843,-14.14214"
       id="path3040"
       inkscape:connector-curvature="0" />
    <path
       style="fill:none;stroke:#000000;stroke-width:1px;stroke-linecap:butt;stroke-linejoin:miter;stroke-opacity:1"
       d="m -1899.9707,241.71475 18.5616,-16.16244 6.0609,-22.72843 26.2639,-13.13198 33.8402,14.14213"
       id="path3042"
       inkscape:connector-curvature="0"
       sodipodi:nodetypes="ccccc" />
    <path
       style="fill:none;stroke:#000000;stroke-width:1px;stroke-linecap:butt;stroke-linejoin:miter;stroke-opacity:1"
       d="m -1949.5944,309.90005 -5.5559,10.10153 -11.6167,0"
       id="path3044"
       inkscape:connector-curvature="0" />
    <path
       style="fill:none;stroke:#000000;stroke-width:1px;stroke-linecap:butt;stroke-linejoin:miter;stroke-opacity:1"
       d="m -1953.0357,315.9336 1.9642,9.28571 -2.1428,7.14286"
       id="path3046"
       inkscape:connector-curvature="0" />
    <path
       style="fill:none;stroke:#000000;stroke-width:1px;stroke-linecap:butt;stroke-linejoin:miter;stroke-opacity:1"
       d="m -1933.1795,300.42987 11.1117,6.69226 14.521,0.12627 2.5253,5.05076"
       id="path3049"
       inkscape:connector-curvature="0" />
    <path
       style="fill:none;stroke:#000000;stroke-width:1px;stroke-linecap:butt;stroke-linejoin:miter;stroke-opacity:1"
       d="m -1907.2943,307.2484 10.9854,3.03046 5.5559,-2.90419"
       id="path3051"
       inkscape:connector-curvature="0"
       sodipodi:nodetypes="ccc" />
    <path
       style="fill:none;stroke:#000000;stroke-width:1px;stroke-linecap:butt;stroke-linejoin:miter;stroke-opacity:1"
       d="m -1911.0715,240.21931 -13.2142,-21.78571 -0.7143,-27.5 -8.2143,-13.21429"
       id="path3053"
       inkscape:connector-curvature="0" />
    <path
       style="fill:#ffffff;stroke:#000000;stroke-width:3;stroke-linecap:butt;stroke-linejoin:miter;stroke-miterlimit:4;stroke-opacity:1;stroke-dasharray:none"
       d="m -1725.3847,725.93424 c -4.1368,-1.0222 -11.2163,-2.0205 -16.1827,-0.75761 0.8275,8.38572 5.0711,28.51651 5.0711,28.51651 0,0 18.92,4.54255 14.6269,-4.33376 -4.2932,-8.87631 0.6216,-22.40294 -3.5153,-23.42514 z"
       id="path5359-1-38"
       inkscape:connector-curvature="0"
       sodipodi:nodetypes="zcczz" />
    <path
       style="fill:#ffffff;stroke:#000000;stroke-width:3;stroke-linecap:butt;stroke-linejoin:miter;stroke-miterlimit:4;stroke-opacity:1;stroke-dasharray:none"
       d="m -1625.2915,724.92409 c 4.1369,-1.0222 11.2164,-2.0205 16.1828,-0.75761 -0.8276,8.38572 -5.0711,28.51651 -5.0711,28.51651 0,0 -18.9201,4.54255 -14.6269,-4.33376 4.2931,-8.87631 -0.6216,-22.40294 3.5152,-23.42514 z"
       id="path5359-1-3-1"
       inkscape:connector-curvature="0"
       sodipodi:nodetypes="zcczz" />
    <path
       style="fill:none;stroke:#b3b3b3;stroke-width:1px;stroke-linecap:butt;stroke-linejoin:miter;stroke-opacity:1"
       d="m -1307.6315,301.87849 c 6.8605,-20.03469 5.2135,-40.06939 0,-60.10408"
       id="path3017-2"
       inkscape:connector-curvature="0"
       sodipodi:nodetypes="cc" />
    <path
       style="fill:none;stroke:#b3b3b3;stroke-width:1px;stroke-linecap:butt;stroke-linejoin:miter;stroke-opacity:1"
       d="m -1312.2743,302.23564 c 6.8605,-20.03469 5.2135,-40.06939 0,-60.10408"
       id="path3017-2-3"
       inkscape:connector-curvature="0"
       sodipodi:nodetypes="cc" />
    <path
       style="fill:none;stroke:#b3b3b3;stroke-width:1px;stroke-linecap:butt;stroke-linejoin:miter;stroke-opacity:1"
       d="m -1298.5244,302.23564 c 6.8605,-20.03469 5.2135,-40.06939 0,-60.10408"
       id="path3017-25"
       inkscape:connector-curvature="0"
       sodipodi:nodetypes="cc" />
    <path
       style="fill:none;stroke:#999999;stroke-width:1px;stroke-linecap:butt;stroke-linejoin:miter;stroke-opacity:1"
       d="m -1268.6882,302.56345 c 5.2262,-23.59936 4.2664,-44.01097 0.089,-60.89364"
       id="path3019-5"
       inkscape:connector-curvature="0"
       sodipodi:nodetypes="cc" />
    <path
       style="fill:none;stroke:#999999;stroke-width:1px;stroke-linecap:butt;stroke-linejoin:miter;stroke-opacity:1"
       d="m -1263.7639,302.71971 c 5.2262,-23.59936 4.1324,-44.1449 -0.045,-61.02757"
       id="path3019-5-1"
       inkscape:connector-curvature="0"
       sodipodi:nodetypes="cc" />
    <path
       style="fill:none;stroke:#999999;stroke-width:1px;stroke-linecap:butt;stroke-linejoin:miter;stroke-opacity:1"
       d="m -1258.7639,302.7197 c 5.2262,-23.59936 4.2217,-44.18954 0.045,-61.07221"
       id="path3019-5-1-4"
       inkscape:connector-curvature="0"
       sodipodi:nodetypes="cc" />
    <path
       style="fill:#333333;stroke:none;filter:url(#filter3889)"
       d="m -1331.4286,242.84466 89.4229,-0.59886 -1.0606,1.80552 -88.0051,0.0433 z"
       id="path3887"
       inkscape:connector-curvature="0"
       sodipodi:nodetypes="ccccc" />
    <path
       style="fill:#666666;stroke:none;filter:url(#filter3883)"
       d="m -1330.033,286.68886 87.8082,2.07197 0.2187,3.34996 -88.4721,0.45341 c 0.3686,-1.84532 0.2623,-3.46926 0.4452,-5.87534 z"
       id="path3097"
       inkscape:connector-curvature="0"
       sodipodi:nodetypes="ccccc" />
    <path
       style="fill:none;stroke:#000000;stroke-width:1px;stroke-linecap:butt;stroke-linejoin:miter;stroke-opacity:1;filter:url(#filter4003)"
       d="m -1241.0128,302.70465 c -1.6301,-20.14016 -2.3766,-40.91387 -0.8622,-61.21301"
       id="path4001"
       inkscape:connector-curvature="0"
       sodipodi:nodetypes="cc" />
    <path
       style="fill:#cccccc;stroke:none"
       d="m -1239.6429,299.14788 66.9643,-0.17856 c 14.5009,-9.97626 14.9025,-32.50209 2.6786,-31.96429 -8.6168,1.12501 -12.0301,17.95494 -21.25,22.67857 -11.7021,5.99534 -48.3929,9.46428 -48.3929,9.46428 z"
       id="path4007"
       inkscape:connector-curvature="0"
       sodipodi:nodetypes="cccsc" />
    <path
       sodipodi:type="arc"
       style="fill:#ff0000;fill-opacity:1;stroke:none;filter:url(#filter3855)"
       id="path3066"
       sodipodi:cx="-1330"
       sodipodi:cy="516.64789"
       sodipodi:rx="30"
       sodipodi:ry="30"
       d="m -1300,516.64789 a 30,30 0 1 1 -60,0 30,30 0 1 1 60,0 z"
       transform="matrix(0.73062598,0,0,0.73062598,-572.55313,68.974336)" />
    <path
       sodipodi:type="arc"
       style="fill:#ff0000;fill-opacity:1;stroke:none;filter:url(#filter3855-8)"
       id="path3066-1"
       sodipodi:cx="-1330"
       sodipodi:cy="516.64789"
       sodipodi:rx="30"
       sodipodi:ry="30"
       d="m -1300,516.64789 a 30,30 0 1 1 -60,0 30,30 0 1 1 60,0 z"
       transform="matrix(0.73062598,0,0,0.73062598,-828.32267,68.974336)" />
  </g>
</svg>
