<?xml version="1.0" encoding="UTF-8" standalone="no"?>
<!-- Created with Inkscape (http://www.inkscape.org/) -->

<svg
   xmlns:dc="http://purl.org/dc/elements/1.1/"
   xmlns:cc="http://creativecommons.org/ns#"
   xmlns:rdf="http://www.w3.org/1999/02/22-rdf-syntax-ns#"
   xmlns:svg="http://www.w3.org/2000/svg"
   xmlns="http://www.w3.org/2000/svg"
   xmlns:sodipodi="http://sodipodi.sourceforge.net/DTD/sodipodi-0.dtd"
   xmlns:inkscape="http://www.inkscape.org/namespaces/inkscape"
   width="210mm"
   height="297mm"
   viewBox="0 0 744.09448819 1052.3622047"
   id="svg2"
   version="1.1"
   inkscape:version="0.91 r13725"
   sodipodi:docname="layeredSphere.svg">
  <sodipodi:namedview
     id="base"
     pagecolor="#ffffff"
     bordercolor="#666666"
     borderopacity="1.0"
     inkscape:pageopacity="0.0"
     inkscape:pageshadow="2"
     inkscape:zoom="2"
     inkscape:cx="412.7415"
     inkscape:cy="729.86749"
     inkscape:document-units="px"
     inkscape:current-layer="layer1"
     showgrid="false"
     inkscape:window-width="1680"
     inkscape:window-height="1007"
     inkscape:window-x="1280"
     inkscape:window-y="0"
     inkscape:window-maximized="1" />
  <defs
     id="defs4" />
  <metadata
     id="metadata7">
    <rdf:RDF>
      <cc:Work
         rdf:about="">
        <dc:format>image/svg+xml</dc:format>
        <dc:type
           rdf:resource="http://purl.org/dc/dcmitype/StillImage" />
        <dc:title></dc:title>
      </cc:Work>
    </rdf:RDF>
  </metadata>
  <g
     inkscape:label="Layer 1"
     inkscape:groupmode="layer"
     id="layer1">
    <g
       id="g4889"
       transform="matrix(0.8660254,-0.5,0.5,0.8660254,-98.935782,223.49115)">
      <path
         inkscape:connector-curvature="0"
         style="color:#000000;font-style:normal;font-variant:normal;font-weight:normal;font-stretch:normal;font-size:medium;line-height:normal;font-family:sans-serif;text-indent:0;text-align:start;text-decoration:none;text-decoration-line:none;text-decoration-style:solid;text-decoration-color:#000000;letter-spacing:normal;word-spacing:normal;text-transform:none;direction:ltr;block-progression:tb;writing-mode:lr-tb;baseline-shift:baseline;text-anchor:start;white-space:normal;clip-rule:nonzero;display:inline;overflow:visible;visibility:visible;opacity:1;isolation:auto;mix-blend-mode:normal;color-interpolation:sRGB;color-interpolation-filters:linearRGB;solid-color:#000000;solid-opacity:1;fill:#ff7f00;fill-opacity:1;fill-rule:nonzero;stroke:none;stroke-width:1;stroke-linecap:butt;stroke-linejoin:miter;stroke-miterlimit:4;stroke-dasharray:none;stroke-dashoffset:0;stroke-opacity:1;color-rendering:auto;image-rendering:auto;shape-rendering:auto;text-rendering:auto;enable-background:accumulate"
         d="m 401.97461,389.75385 c 0.61283,-0.33148 1.20785,-0.66884 1.76758,-1.01758 2.92334,-1.82138 5.11432,-3.87183 6.4082,-6.09961 1.29388,-2.22778 1.67042,-4.651 0.94336,-7.07227 -1.45412,-4.84253 -6.90588,-8.88434 -14.66406,-11.77343 -7.75818,-2.8891 -17.87971,-4.61133 -28.85742,-4.61133 -10.97772,0 -21.1012,1.72223 -28.85938,4.61133 -7.75818,2.88909 -13.20994,6.9309 -14.66406,11.77343 -0.72706,2.42127 -0.35052,4.84449 0.94336,7.07227 1.29387,2.22778 3.48486,4.27823 6.4082,6.09961 0.55856,0.34801 1.1522,0.6848 1.76367,1.01562 -14.48606,-5.33818 -27.38738,-13.95069 -37.80664,-24.93945 0,0 -0.002,-0.002 -0.002,-0.002 -3.21213,-3.38947 -4.95449,-6.86083 -5.37305,-10.29492 -0.41864,-3.4348 0.47887,-6.85343 2.64844,-10.17188 4.33913,-6.6369 13.81559,-12.81159 27.74023,-17.29102 27.84929,-8.95881 66.55111,-8.95882 94.40039,0 13.92465,4.47942 23.40111,10.65412 27.74024,17.29102 2.16956,3.31845 3.06708,6.73708 2.64844,10.17188 -0.41864,3.43479 -2.16163,6.90675 -5.375,10.29687 l 0.002,0 c -10.42065,10.99022 -23.32408,19.60338 -37.8125,24.94141 z m 63.45312,-75.30274 c -0.67236,-5.74888 -4.09075,-11.30981 -9.84765,-16.31445 -7.93512,-6.89824 -20.29565,-12.82293 -36.16406,-17.01953 -31.73682,-8.39321 -71.95068,-8.39321 -103.6875,0 -15.86841,4.1966 -28.2309,10.12129 -36.16602,17.01953 -5.75556,5.00349 -9.17278,10.56309 -9.8457,16.31055 -1.07658,-5.86456 -1.64453,-11.90791 -1.64453,-18.08399 0,-8.4319 1.05366,-16.61726 3.02734,-24.43555 l 0.0176,0.004 c 2.5822,-10.19542 14.19568,-19.35711 31.46484,-25.91601 17.26916,-6.55891 40.12971,-10.52344 64.99024,-10.52344 24.86052,0 47.71912,3.96453 64.98828,10.52344 17.26915,6.5589 28.88263,15.72059 31.46484,25.91601 l 0.0195,-0.006 c 1.97399,7.81883 3.02735,16.00494 3.02735,24.4375 0,6.1774 -0.5675,12.22216 -1.64454,18.08789 z m -33.44726,-93.92578 c -14.53523,-8.83876 -38.40829,-14.21289 -64.4082,-14.21289 -25.99639,0 -49.86802,5.37237 -64.4043,14.20899 14.78107,-12.56402 33.27992,-20.88217 53.61914,-23.07422 0.79986,-0.0872 1.60618,-0.16297 2.41406,-0.23047 0.11086,-0.009 0.22107,-0.0203 0.33203,-0.0293 5.31388,-0.42552 10.77025,-0.42404 16.08399,0.002 0.0992,0.008 0.19777,0.0174 0.29687,0.0254 0.81709,0.068 1.63251,0.14423 2.44141,0.23243 20.3419,2.19194 38.84276,10.51173 53.625,23.07812 z"
         id="path4878" />
      <path
         id="path4886"
         d="m 367.57617,196.86914 c -2.69254,-4.3e-4 -5.38603,0.1056 -8.04297,0.31836 -0.11096,0.009 -0.22117,0.0203 -0.33203,0.0293 -0.80788,0.0675 -1.6142,0.14327 -2.41406,0.23047 -3.95937,0.42672 -7.8463,1.09355 -11.65234,1.9707 6.34139,1.73434 12.43366,4.06952 18.20898,6.94922 1.40346,-0.0316 2.81126,-0.0547 4.22852,-0.0547 25.99991,0 49.87297,5.37413 64.4082,14.21289 -14.78224,-12.56639 -33.2831,-20.88618 -53.625,-23.07812 -0.8089,-0.0882 -1.62432,-0.16443 -2.44141,-0.23243 -0.0991,-0.008 -0.19767,-0.0174 -0.29687,-0.0254 -2.65687,-0.21302 -5.34847,-0.31987 -8.04102,-0.32031 z m 32.73438,41.02539 c 8.9259,12.45371 15.07265,27.03039 17.54297,42.82617 0.52094,0.13216 1.04597,0.25988 1.5625,0.39649 15.86841,4.1966 28.22894,10.12129 36.16406,17.01953 5.7569,5.00464 9.17529,10.56557 9.84765,16.31445 1.07704,-5.86573 1.64454,-11.91049 1.64454,-18.08789 0,-8.43256 -1.05336,-16.61867 -3.02735,-24.4375 l -0.0195,0.006 c -2.58221,-10.19542 -14.19569,-19.35712 -31.46484,-25.91602 -9.30972,-3.53587 -20.25352,-6.30785 -32.25,-8.12109 z m 14.02343,89.02344 c -4.29037,13.45093 -11.33681,25.66969 -20.4746,35.99805 0.87778,0.28048 1.74428,0.56739 2.57031,0.875 7.75818,2.88909 13.20994,6.9309 14.66406,11.77343 0.72706,2.42127 0.35052,4.84449 -0.94336,7.07227 -1.29388,2.22778 -3.48486,4.27823 -6.4082,6.09961 -0.55973,0.34874 -1.15475,0.6861 -1.76758,1.01758 14.48842,-5.33803 27.39185,-13.95119 37.8125,-24.94141 l -0.002,0 c 3.21337,-3.39012 4.95636,-6.86208 5.375,-10.29688 0.41864,-3.4348 -0.47888,-6.85342 -2.64844,-10.17187 -4.33913,-6.6369 -13.81559,-12.8116 -27.74024,-17.29102 -0.14407,-0.0463 -0.29284,-0.0889 -0.4375,-0.13476 z"
         style="color:#000000;font-style:normal;font-variant:normal;font-weight:normal;font-stretch:normal;font-size:medium;line-height:normal;font-family:sans-serif;text-indent:0;text-align:start;text-decoration:none;text-decoration-line:none;text-decoration-style:solid;text-decoration-color:#000000;letter-spacing:normal;word-spacing:normal;text-transform:none;direction:ltr;block-progression:tb;writing-mode:lr-tb;baseline-shift:baseline;text-anchor:start;white-space:normal;clip-rule:nonzero;display:inline;overflow:visible;visibility:visible;opacity:1;isolation:auto;mix-blend-mode:normal;color-interpolation:sRGB;color-interpolation-filters:linearRGB;solid-color:#000000;solid-opacity:1;fill:#ff3700;fill-opacity:1;fill-rule:nonzero;stroke:none;stroke-width:1;stroke-linecap:butt;stroke-linejoin:miter;stroke-miterlimit:4;stroke-dasharray:none;stroke-dashoffset:0;stroke-opacity:1;color-rendering:auto;image-rendering:auto;shape-rendering:auto;text-rendering:auto;enable-background:accumulate"
         inkscape:connector-curvature="0" />
      <path
         id="path4871"
         d="m 401.97461,202.9707 c 0.61283,0.33148 1.20785,0.66884 1.76758,1.01758 2.92334,1.82138 5.11432,3.87183 6.4082,6.09961 1.29388,2.22778 1.67042,4.651 0.94336,7.07227 -1.45412,4.84253 -6.90588,8.88434 -14.66406,11.77343 -7.75818,2.8891 -17.87971,4.61133 -28.85742,4.61133 -10.97772,0 -21.1012,-1.72223 -28.85938,-4.61133 -7.75818,-2.88909 -13.20994,-6.9309 -14.66406,-11.77343 -0.72706,-2.42127 -0.35052,-4.84449 0.94336,-7.07227 1.29387,-2.22778 3.48486,-4.27823 6.4082,-6.09961 0.55856,-0.34801 1.1522,-0.6848 1.76367,-1.01562 -14.48606,5.33818 -27.38738,13.95069 -37.80664,24.93945 0,0 -0.002,0.002 -0.002,0.002 -3.21213,3.38947 -4.95449,6.86083 -5.37305,10.29492 -0.41864,3.4348 0.47887,6.85343 2.64844,10.17188 4.33913,6.6369 13.81559,12.81159 27.74023,17.29102 27.84929,8.95881 66.55111,8.95882 94.40039,0 13.92465,-4.47942 23.40111,-10.65412 27.74024,-17.29102 2.16956,-3.31845 3.06708,-6.73708 2.64844,-10.17188 -0.41864,-3.43479 -2.16163,-6.90675 -5.375,-10.29687 l 0.002,0 c -10.42065,-10.99022 -23.32408,-19.60338 -37.8125,-24.94141 z m 63.45312,75.30274 c -0.67236,5.74888 -4.09075,11.30981 -9.84765,16.31445 -7.93512,6.89824 -20.29565,12.82293 -36.16406,17.01953 -31.73682,8.39321 -71.95068,8.39321 -103.6875,0 -15.86841,-4.1966 -28.2309,-10.12129 -36.16602,-17.01953 -5.75556,-5.00349 -9.17278,-10.56309 -9.8457,-16.31055 -1.07658,5.86456 -1.64453,11.90791 -1.64453,18.08399 0,8.4319 1.05366,16.61726 3.02734,24.43555 l 0.0176,-0.004 c 2.5822,10.19542 14.19568,19.35711 31.46484,25.91601 17.26916,6.55891 40.12971,10.52344 64.99024,10.52344 24.86052,0 47.71912,-3.96453 64.98828,-10.52344 17.26915,-6.5589 28.88263,-15.72059 31.46484,-25.91601 l 0.0195,0.006 c 1.97399,-7.81883 3.02735,-16.00494 3.02735,-24.4375 0,-6.1774 -0.5675,-12.22216 -1.64454,-18.08789 z m -33.44726,93.92578 c -14.53523,8.83876 -38.40829,14.21289 -64.4082,14.21289 -25.99639,0 -49.86802,-5.37237 -64.4043,-14.20899 14.78107,12.56402 33.27992,20.88217 53.61914,23.07422 0.79986,0.0872 1.60618,0.16297 2.41406,0.23047 0.11086,0.009 0.22107,0.0203 0.33203,0.0293 5.31388,0.42552 10.77025,0.42404 16.08399,-0.002 0.0992,-0.008 0.19777,-0.0174 0.29687,-0.0254 0.81709,-0.068 1.63251,-0.14423 2.44141,-0.23243 20.3419,-2.19194 38.84276,-10.51173 53.625,-23.07812 z"
         style="color:#000000;font-style:normal;font-variant:normal;font-weight:normal;font-stretch:normal;font-size:medium;line-height:normal;font-family:sans-serif;text-indent:0;text-align:start;text-decoration:none;text-decoration-line:none;text-decoration-style:solid;text-decoration-color:#000000;letter-spacing:normal;word-spacing:normal;text-transform:none;direction:ltr;block-progression:tb;writing-mode:lr-tb;baseline-shift:baseline;text-anchor:start;white-space:normal;clip-rule:nonzero;display:inline;overflow:visible;visibility:visible;opacity:1;isolation:auto;mix-blend-mode:normal;color-interpolation:sRGB;color-interpolation-filters:linearRGB;solid-color:#000000;solid-opacity:1;fill:#ffcc00;fill-opacity:1;fill-rule:nonzero;stroke:none;stroke-width:1;stroke-linecap:butt;stroke-linejoin:miter;stroke-miterlimit:4;stroke-dasharray:none;stroke-dashoffset:0;stroke-opacity:1;color-rendering:auto;image-rendering:auto;shape-rendering:auto;text-rendering:auto;enable-background:accumulate"
         inkscape:connector-curvature="0" />
      <path
         id="path4880"
         d="m 333.16406,202.97266 c -14.48606,5.33818 -27.38738,13.95069 -37.80664,24.93945 l -0.002,0.002 c -3.21213,3.38947 -4.95449,6.86083 -5.37305,10.29492 -0.41864,3.4348 0.47887,6.85343 2.64844,10.17188 4.33913,6.6369 13.81559,12.81159 27.74023,17.29102 0.14408,0.0463 0.29285,0.0889 0.4375,0.13476 4.29061,-13.45081 11.33874,-25.66945 20.47657,-35.99805 -0.87846,-0.28065 -1.74568,-0.56718 -2.57227,-0.875 -7.75818,-2.88909 -13.20994,-6.9309 -14.66406,-11.77343 -0.72706,-2.42127 -0.35052,-4.84449 0.94336,-7.07227 1.29387,-2.22778 3.48486,-4.27823 6.4082,-6.09961 0.55856,-0.34801 1.1522,-0.6848 1.76367,-1.01562 z m -63.44726,75.30468 c -1.07658,5.86456 -1.64453,11.90791 -1.64453,18.08399 0,8.4319 1.05366,16.61725 3.02734,24.43555 l 0.0176,-0.004 c 2.5822,10.19542 14.19568,19.35711 31.46484,25.91601 9.30872,3.5355 20.25254,6.30785 32.24805,8.1211 -8.92528,-12.45332 -15.06874,-27.03104 -17.53906,-42.82617 -0.52095,-0.13216 -1.04597,-0.25988 -1.5625,-0.39649 -15.86841,-4.1966 -28.2309,-10.12129 -36.16602,-17.01953 -5.75556,-5.00349 -9.17278,-10.56309 -9.8457,-16.31055 z m 33.45117,93.92578 c 14.78107,12.56402 33.27992,20.88217 53.61914,23.07422 0.79986,0.0872 1.60618,0.16297 2.41406,0.23047 0.11086,0.009 0.22107,0.0203 0.33203,0.0293 5.31388,0.42552 10.77025,0.42404 16.08399,-0.002 0.0992,-0.008 0.19777,-0.0174 0.29687,-0.0254 0.81709,-0.068 1.63251,-0.14423 2.44141,-0.23243 3.96118,-0.42683 7.85051,-1.09302 11.6582,-1.9707 -6.33909,-1.73246 -12.42753,-4.07261 -18.20117,-6.94922 -1.40749,0.0318 -2.81886,0.0547 -4.24023,0.0547 -25.99639,0 -49.86802,-5.37236 -64.4043,-14.20899 z"
         style="color:#000000;font-style:normal;font-variant:normal;font-weight:normal;font-stretch:normal;font-size:medium;line-height:normal;font-family:sans-serif;text-indent:0;text-align:start;text-decoration:none;text-decoration-line:none;text-decoration-style:solid;text-decoration-color:#000000;letter-spacing:normal;word-spacing:normal;text-transform:none;direction:ltr;block-progression:tb;writing-mode:lr-tb;baseline-shift:baseline;text-anchor:start;white-space:normal;clip-rule:nonzero;display:inline;overflow:visible;visibility:visible;opacity:1;isolation:auto;mix-blend-mode:normal;color-interpolation:sRGB;color-interpolation-filters:linearRGB;solid-color:#000000;solid-opacity:1;fill:#ffe600;fill-opacity:1;fill-rule:nonzero;stroke:none;stroke-width:1;stroke-linecap:butt;stroke-linejoin:miter;stroke-miterlimit:4;stroke-dasharray:none;stroke-dashoffset:0;stroke-opacity:1;color-rendering:auto;image-rendering:auto;shape-rendering:auto;text-rendering:auto;enable-background:accumulate"
         inkscape:connector-curvature="0" />
    </g>
  </g>
</svg>
