<?xml version="1.0" encoding="UTF-8" standalone="no"?>
<!-- Created with Inkscape (http://www.inkscape.org/) -->

<svg
   xmlns:dc="http://purl.org/dc/elements/1.1/"
   xmlns:cc="http://creativecommons.org/ns#"
   xmlns:rdf="http://www.w3.org/1999/02/22-rdf-syntax-ns#"
   xmlns:svg="http://www.w3.org/2000/svg"
   xmlns="http://www.w3.org/2000/svg"
   xmlns:sodipodi="http://sodipodi.sourceforge.net/DTD/sodipodi-0.dtd"
   xmlns:inkscape="http://www.inkscape.org/namespaces/inkscape"
   width="744.09448819"
   height="1052.3622047"
   id="svg2"
   version="1.1"
   inkscape:version="0.48.4 r9939"
   sodipodi:docname="mysymbol.svg">
  <defs
     id="defs4" />
  <sodipodi:namedview
     id="base"
     pagecolor="#ffffff"
     bordercolor="#666666"
     borderopacity="1.0"
     inkscape:pageopacity="0.0"
     inkscape:pageshadow="2"
     inkscape:zoom="0.98994949"
     inkscape:cx="333.08439"
     inkscape:cy="399.51055"
     inkscape:document-units="px"
     inkscape:current-layer="layer1"
     showgrid="false"
     inkscape:window-width="1366"
     inkscape:window-height="696"
     inkscape:window-x="-2"
     inkscape:window-y="-3"
     inkscape:window-maximized="1"
     showguides="true"
     inkscape:guide-bbox="true" />
  <metadata
     id="metadata7">
    <rdf:RDF>
      <cc:Work
         rdf:about="">
        <dc:format>image/svg+xml</dc:format>
        <dc:type
           rdf:resource="http://purl.org/dc/dcmitype/StillImage" />
        <dc:title></dc:title>
      </cc:Work>
    </rdf:RDF>
  </metadata>
  <g
     inkscape:label="Layer 1"
     inkscape:groupmode="layer"
     id="layer1">
    <path
       transform="translate(-37.14286,51.428567)"
       style="fill:#008000;fill-opacity:1;stroke:#000000;stroke-width:4.9000001;stroke-linecap:round;stroke-linejoin:round;stroke-miterlimit:4;stroke-opacity:1;stroke-dashoffset:0"
       d="m 557.14287,530.93359 c 0,8.02646 57.94017,-27.65521 127.77124,-25.29119 93.01398,3.14885 166.76619,61.95394 128.92115,86.545 -24.80415,16.11731 -65.33013,-42.22332 -134.98226,-45.25378 -56.99329,-2.47969 -127.23536,26.70166 -128.67553,31.48006 -4.18084,13.87175 -10.14621,26.96997 -17.62924,39.0278 -4.32434,6.96803 48.06928,-7.62688 134.42461,36.9925 69.62511,35.97497 86.45055,101.10461 63.92138,104.30985 -54.15918,7.70525 -18.96275,-49.11471 -112.26957,-79.75801 -38.9303,-12.78527 -118.4143,-23.49919 -123.82782,-19.21022 -28.01083,22.19215 -63.42772,35.44371 -101.93968,35.44371 -37.09079,0 -71.31072,-12.29159 -98.80867,-33.02364 -4.56765,-3.44378 -51.10318,-17.32811 -114.30309,12.71622 -75.74447,36.00783 -44.21267,110.90698 -104.943028,83.0187 -26.145875,-12.00657 6.465577,-65.56304 58.372648,-98.96508 69.23518,-44.55262 127.42849,-30.00232 121.77485,-38.71364 -8.39465,-12.93474 -15.01894,-27.12472 -19.52959,-42.22667 -1.47707,-4.94533 -79.99624,-15.4359 -121.8392,-7.64872 C 49.244888,582.34975 37.172636,656.87131 1.4130084,634.00396 -29.792564,614.04881 38.970949,550.12701 100.25502,536.15429 c 78.07506,-17.80105 128.31641,2.49506 128.31641,-5.2207 0,-17.68484 2.79433,-34.71703 7.96557,-50.67914 1.40345,-4.33207 -69.24184,-41.29913 -116.99897,-40.7494 -87.756499,1.01015 -99.537952,91.54397 -137.7587,49.87515 -24.815702,-27.05444 39.813561,-70.47305 114.283547,-82.77005 82.490333,-13.62138 154.960723,41.03781 159.000923,34.82984 22.93688,-35.24372 59.02877,-61.14039 101.31313,-70.72747 11.73288,-2.66019 24.95269,-20.22709 37.49037,-20.22709 13.04496,0 24.72466,17.68285 36.89186,20.55614 41.01287,9.6852 76.08732,34.7419 98.80672,68.75347 3.77183,5.64654 67.27549,-59.18919 153.83597,-55.20644 103.04471,4.74121 163.96684,59.54399 148.56452,86.79341 -24.40944,43.18459 -49.49826,-51.99561 -154.37142,-55.09612 -75.70737,-2.23824 -130.98069,56.47555 -129.48999,60.77172 4.96135,14.29845 8.0031,29.4943 8.81685,45.27915 0.14677,2.84705 0.22106,5.71327 0.22106,8.59683 z"
       id="path3006"
       inkscape:connector-curvature="0"
       sodipodi:nodetypes="ssssssssssssssssssssssssssssssssssss" />
    <path
       transform="translate(-29.959539,88.285723)"
       sodipodi:type="arc"
       style="fill:#ffffff;fill-opacity:1;stroke:#000000;stroke-width:4.90000009999999975;stroke-linecap:round;stroke-linejoin:round;stroke-miterlimit:4;stroke-opacity:1;stroke-dasharray:none;stroke-dashoffset:0"
       id="path2985"
       sodipodi:cx="387.14285"
       sodipodi:cy="496.64789"
       sodipodi:rx="124.28571"
       sodipodi:ry="124.28571"
       d="m 511.42857,496.64789 a 124.28571,124.28571 0 1 1 -248.57143,0 124.28571,124.28571 0 1 1 248.57143,0 z" />
    <path
       sodipodi:type="arc"
       style="fill:#000000;fill-opacity:1;stroke:#000000;stroke-width:4.41944599;stroke-linecap:round;stroke-linejoin:round;stroke-miterlimit:4;stroke-opacity:1;stroke-dasharray:none;stroke-dashoffset:0"
       id="path3043"
       sodipodi:cx="163.64471"
       sodipodi:cy="809.9256"
       sodipodi:rx="23.233509"
       sodipodi:ry="21.213203"
       d="m 186.77257,811.94634 a 23.233509,21.213203 0 1 1 -0.0432,-4.41809 l -23.08467,2.39735 z"
       sodipodi:start="0.095403279"
       sodipodi:end="6.1699313"
       transform="matrix(0.54347827,0,0,2.2619047,268.24597,-1242.4953)" />
  </g>
</svg>
