<?xml version="1.0" encoding="UTF-8" standalone="no"?>
<!-- Created with Inkscape (http://www.inkscape.org/) -->

<svg
   xmlns:dc="http://purl.org/dc/elements/1.1/"
   xmlns:cc="http://creativecommons.org/ns#"
   xmlns:rdf="http://www.w3.org/1999/02/22-rdf-syntax-ns#"
   xmlns:svg="http://www.w3.org/2000/svg"
   xmlns="http://www.w3.org/2000/svg"
   xmlns:sodipodi="http://sodipodi.sourceforge.net/DTD/sodipodi-0.dtd"
   xmlns:inkscape="http://www.inkscape.org/namespaces/inkscape"
   width="210mm"
   height="297mm"
   viewBox="0 0 744.09448819 1052.3622047"
   id="svg2"
   version="1.1"
   inkscape:version="0.91 r13725"
   sodipodi:docname="drawing.svg">
  <defs
     id="defs4" />
  <sodipodi:namedview
     id="base"
     pagecolor="#ffffff"
     bordercolor="#666666"
     borderopacity="1.0"
     inkscape:pageopacity="0.0"
     inkscape:pageshadow="2"
     inkscape:zoom="1"
     inkscape:cx="292.07566"
     inkscape:cy="905.72235"
     inkscape:document-units="px"
     inkscape:current-layer="layer1"
     showgrid="false"
     inkscape:object-nodes="true"
     inkscape:window-width="1680"
     inkscape:window-height="1007"
     inkscape:window-x="1280"
     inkscape:window-y="0"
     inkscape:window-maximized="1" />
  <metadata
     id="metadata7">
    <rdf:RDF>
      <cc:Work
         rdf:about="">
        <dc:format>image/svg+xml</dc:format>
        <dc:type
           rdf:resource="http://purl.org/dc/dcmitype/StillImage" />
        <dc:title></dc:title>
      </cc:Work>
    </rdf:RDF>
  </metadata>
  <g
     inkscape:label="Layer 1"
     inkscape:groupmode="layer"
     id="layer1">
    <path
       style="opacity:1;fill:#ffcc00;fill-opacity:1;stroke:none;stroke-width:2.5;stroke-linecap:round;stroke-linejoin:miter;stroke-miterlimit:3.79999995;stroke-dasharray:none;stroke-dashoffset:0;stroke-opacity:1"
       d="m -242.03153,119.93492 0,84.85282 L -62.42641,384.39286 117.17872,204.78774 74.75231,162.36133 -62.42641,299.54005 -242.03153,119.93492 Z"
       id="rect4136"
       inkscape:connector-curvature="0" />
    <path
       style="opacity:1;fill:#ff6f00;fill-opacity:1;stroke:none;stroke-width:2.5;stroke-linecap:round;stroke-linejoin:miter;stroke-miterlimit:3.79999995;stroke-dasharray:none;stroke-dashoffset:0;stroke-opacity:1"
       d="M -242.03153,119.93492 -62.42641,299.54005 -20,257.11364 -157.17872,119.93492 22.42641,-59.670199 l -84.85282,0 -179.60512,179.605119 z"
       id="path4144"
       inkscape:connector-curvature="0" />
    <path
       style="opacity:1;fill:#ffcc00;fill-opacity:1;stroke:none;stroke-width:2.5;stroke-linecap:round;stroke-linejoin:miter;stroke-miterlimit:3.79999995;stroke-dasharray:none;stroke-dashoffset:0;stroke-opacity:1"
       d="m -157.17872,119.93492 42.42641,42.42641 137.17872,-137.17872 179.60512,179.60513 0,-84.85282 L 22.42641,-59.670199 -157.17872,119.93492 Z"
       id="path4149"
       inkscape:connector-curvature="0" />
    <path
       id="path4154"
       d="M 202.03153,204.78774 22.42641,25.18261 -20,67.60902 117.17872,204.78774 -62.42641,384.39286 l 84.85282,0 179.60512,-179.60512 z"
       style="opacity:1;fill:#ff6f00;fill-opacity:1;stroke:none;stroke-width:2.5;stroke-linecap:round;stroke-linejoin:miter;stroke-miterlimit:3.79999995;stroke-dasharray:none;stroke-dashoffset:0;stroke-opacity:1"
       inkscape:connector-curvature="0" />
    <path
       style="color:#000000;font-style:normal;font-variant:normal;font-weight:normal;font-stretch:normal;font-size:medium;line-height:normal;font-family:sans-serif;text-indent:0;text-align:start;text-decoration:none;text-decoration-line:none;text-decoration-style:solid;text-decoration-color:#000000;letter-spacing:normal;word-spacing:normal;text-transform:none;direction:ltr;block-progression:tb;writing-mode:lr-tb;baseline-shift:baseline;text-anchor:start;white-space:normal;clip-rule:nonzero;display:inline;overflow:visible;visibility:visible;opacity:1;isolation:auto;mix-blend-mode:normal;color-interpolation:sRGB;color-interpolation-filters:linearRGB;solid-color:#000000;solid-opacity:1;fill:#000000;fill-opacity:1;fill-rule:nonzero;stroke:none;stroke-width:13;stroke-linecap:round;stroke-linejoin:miter;stroke-miterlimit:3.79999995;stroke-dasharray:none;stroke-dashoffset:0;stroke-opacity:1;color-rendering:auto;image-rendering:auto;shape-rendering:auto;text-rendering:auto;enable-background:accumulate"
       d="M 456.88086 -66.169922 L 279.96875 110.74219 L 273.46875 117.24219 L 273.46875 122.62695 L 273.46875 207.48047 L 450.38086 384.39258 L 456.88086 390.89258 L 462.26758 390.89258 L 547.11914 390.89258 L 724.03125 213.98047 L 730.53125 207.48047 L 730.53125 202.0957 L 730.53125 117.24219 L 553.61914 -59.669922 L 547.11914 -66.169922 L 541.73242 -66.169922 L 456.88086 -66.169922 z M 462.26562 -53.169922 L 528.73242 -53.169922 L 355.62891 119.93555 L 360.22461 124.53125 L 492.80859 257.11328 L 459.57422 290.34766 L 289.16016 119.93359 L 462.26562 -53.169922 z M 544.42578 -50.476562 L 717.53125 122.62695 L 717.53125 189.0957 L 544.42578 15.990234 L 492.80664 67.609375 L 407.25 153.16797 L 374.01562 119.93359 L 544.42578 -50.476562 z M 544.42578 34.375 L 714.83984 204.78906 L 541.73438 377.89258 L 475.26758 377.89258 L 648.37109 204.78711 L 596.75195 153.16797 L 511.19141 67.609375 L 544.42578 34.375 z M 502 76.802734 L 587.55859 162.36133 L 502 247.91992 L 416.44141 162.36133 L 502 76.802734 z M 286.46875 135.62695 L 459.57422 308.73242 L 511.19336 257.11328 L 596.75 171.55469 L 629.98438 204.78906 L 459.57422 375.19922 L 286.46875 202.0957 L 286.46875 135.62695 z "
       id="path4178" />
  </g>
</svg>
