<?xml version="1.0" encoding="UTF-8" standalone="no"?>
<!-- Created with Inkscape (http://www.inkscape.org/) -->

<svg
   xmlns:dc="http://purl.org/dc/elements/1.1/"
   xmlns:cc="http://creativecommons.org/ns#"
   xmlns:rdf="http://www.w3.org/1999/02/22-rdf-syntax-ns#"
   xmlns:svg="http://www.w3.org/2000/svg"
   xmlns="http://www.w3.org/2000/svg"
   xmlns:xlink="http://www.w3.org/1999/xlink"
   xmlns:sodipodi="http://sodipodi.sourceforge.net/DTD/sodipodi-0.dtd"
   xmlns:inkscape="http://www.inkscape.org/namespaces/inkscape"
   width="210mm"
   height="297mm"
   viewBox="0 0 744.09448819 1052.3622047"
   id="svg2"
   version="1.1"
   inkscape:version="0.91 r13725"
   sodipodi:docname="infographic.svg">
  <sodipodi:namedview
     id="base"
     pagecolor="#ffffff"
     bordercolor="#666666"
     borderopacity="1.0"
     inkscape:pageopacity="0.0"
     inkscape:pageshadow="2"
     inkscape:zoom="1"
     inkscape:cx="346"
     inkscape:cy="749"
     inkscape:document-units="px"
     inkscape:current-layer="layer1"
     showgrid="false"
     inkscape:window-width="1680"
     inkscape:window-height="1007"
     inkscape:window-x="1280"
     inkscape:window-y="0"
     inkscape:window-maximized="1" />
  <defs
     id="defs4">
    <linearGradient
       id="linearGradient4322"
       inkscape:collect="always">
      <stop
         id="stop4324"
         offset="0"
         style="stop-color:#ffffff;stop-opacity:1" />
      <stop
         style="stop-color:#ffffff;stop-opacity:1"
         offset="0.6805293"
         id="stop4328" />
      <stop
         id="stop4326"
         offset="1"
         style="stop-color:#cccccc;stop-opacity:1" />
    </linearGradient>
    <linearGradient
       inkscape:collect="always"
       id="linearGradient4316">
      <stop
         style="stop-color:#ffffff;stop-opacity:1"
         offset="0"
         id="stop4318" />
      <stop
         style="stop-color:#cccccc;stop-opacity:1"
         offset="1"
         id="stop4320" />
    </linearGradient>
    <radialGradient
       gradientUnits="userSpaceOnUse"
       gradientTransform="matrix(1,0,0,0.86111111,0,47.724643)"
       r="288"
       fy="343.61743"
       fx="351.6673"
       cy="343.61743"
       cx="351.6673"
       id="radialGradient4186"
       xlink:href="#linearGradient4316"
       inkscape:collect="always" />
    <radialGradient
       gradientUnits="userSpaceOnUse"
       gradientTransform="matrix(1,0,0,0.86135182,0,47.641932)"
       r="288.5"
       fy="343.61743"
       fx="351.6673"
       cy="343.61743"
       cx="351.6673"
       id="radialGradient4306"
       xlink:href="#linearGradient4322"
       inkscape:collect="always" />
    <clipPath
       clipPathUnits="userSpaceOnUse"
       id="clipPath4622">
      <rect
         style="opacity:1;fill:url(#radialGradient4626);fill-opacity:1;stroke:url(#radialGradient4628);stroke-width:1;stroke-linecap:round;stroke-linejoin:miter;stroke-miterlimit:4;stroke-dasharray:none;stroke-opacity:1"
         id="rect4624"
         width="576"
         height="496"
         x="63.667297"
         y="95.617432" />
    </clipPath>
    <radialGradient
       inkscape:collect="always"
       xlink:href="#linearGradient4322"
       id="radialGradient4626"
       gradientUnits="userSpaceOnUse"
       gradientTransform="matrix(1,0,0,0.86135182,0,47.641932)"
       cx="351.6673"
       cy="343.61743"
       fx="351.6673"
       fy="343.61743"
       r="288.5" />
    <radialGradient
       inkscape:collect="always"
       xlink:href="#linearGradient4316"
       id="radialGradient4628"
       gradientUnits="userSpaceOnUse"
       gradientTransform="matrix(1,0,0,0.86111111,0,47.724643)"
       cx="351.6673"
       cy="343.61743"
       fx="351.6673"
       fy="343.61743"
       r="288" />
  </defs>
  <metadata
     id="metadata7">
    <rdf:RDF>
      <cc:Work
         rdf:about="">
        <dc:format>image/svg+xml</dc:format>
        <dc:type
           rdf:resource="http://purl.org/dc/dcmitype/StillImage" />
        <dc:title />
      </cc:Work>
    </rdf:RDF>
  </metadata>
  <g
     id="layer1"
     inkscape:groupmode="layer"
     inkscape:label="Layer 1">
    <rect
       y="95.617432"
       x="63.667297"
       height="496"
       width="576"
       id="rect4178"
       style="opacity:1;fill:url(#radialGradient4306);fill-opacity:1;stroke:url(#radialGradient4186);stroke-width:1;stroke-linecap:round;stroke-linejoin:miter;stroke-miterlimit:4;stroke-dasharray:none;stroke-opacity:1" />
    <path
       id="path4334"
       d="m 540.16444,439.1702 -63.95123,-4.59063 -35.95124,-53.08808 c 19.19699,-44.88564 1.84872,-97.03781 -40.4101,-121.48032 -13.47322,-7.74897 -28.61885,-12.12886 -44.1484,-12.76709 L 381.0222,189.7878 346.34096,132.33152 c 38.8823,-1.02356 77.29389,8.69489 111.01092,28.08673 97.23318,56.19483 133.59315,178.5847 82.81256,278.75195 z"
       style="opacity:1;fill:#ffffff;fill-opacity:1;stroke:none;stroke-width:1;stroke-linecap:round;stroke-linejoin:miter;stroke-miterlimit:4;stroke-dasharray:none;stroke-opacity:1" />
    <path
       id="path4332"
       d="m 528.51728,459.00381 c -61.32121,94.00605 -185.39443,123.74127 -282.6654,67.74318 -39.82823,-23.10487 -71.02851,-58.5761 -88.8626,-101.02687 l 46.46837,-48.35142 61.99749,9.60414 c 8.44751,16.8 21.6194,30.7659 37.89673,40.18124 42.29376,24.34775 96.1079,13.28776 125.37121,-25.76646 l 35.8971,53.05681 z"
       style="opacity:1;fill:#324867;fill-opacity:1;stroke:none;stroke-width:1;stroke-linecap:round;stroke-linejoin:miter;stroke-miterlimit:4;stroke-dasharray:none;stroke-opacity:1" />
    <path
       id="path4155"
       d="m 332.77001,249.0168 c -27.23877,5.40441 -50.82907,22.28133 -64.73959,46.31582 -12.17671,21.18031 -15.86661,46.19084 -10.3251,69.98516 l -62.01316,-9.5985 -46.48401,48.35705 c -16.71899,-55.70154 -9.764,-115.8297 19.22936,-166.24371 32.80027,-56.71554 90.03312,-95.02789 154.9688,-103.73808 l 34.68185,57.46113 z"
       style="opacity:1;fill:#ff3700;fill-opacity:1;stroke:none;stroke-width:1;stroke-linecap:round;stroke-linejoin:miter;stroke-miterlimit:4;stroke-dasharray:none;stroke-opacity:1" />
    <g
       id="g4506"
       style="opacity:0.2"
       clip-path="url(#clipPath4622)">
      <g
         id="g4508"
         style="opacity:1;fill:#000000;fill-opacity:1;stroke:none;stroke-width:1;stroke-linecap:round;stroke-linejoin:miter;stroke-miterlimit:4;stroke-dasharray:none;stroke-opacity:1">
        <path
           id="path4510"
           d="M353.625 132.26562C351.19956 132.24594 348.77194 132.26806 346.3418 132.33203L629.184512475 415.174742475C631.614652475 415.110772475 634.042272475 415.088652475 636.467712475 415.108332475Z"
           style="" />
        <path
           id="path4512"
           d="M346.3418 132.33203L381.02148 189.78711L663.864192475 472.629822475L629.184512475 415.174742475Z"
           style="" />
        <path
           id="path4514"
           d="M381.02148 189.78711L355.70312 247.24414L638.545832475 530.086852475L663.864192475 472.629822475Z"
           style="" />
        <path
           id="path4516"
           d="M355.70312 247.24414C371.23267 247.88237 386.37834 252.26275 399.85156 260.01172L682.694272475 542.854432475C669.221052475 535.105462475 654.075382475 530.725082475 638.545832475 530.086852475Z"
           style="" />
        <path
           id="path4518"
           d="M399.85156 260.01172C407.296515069 264.317883512 413.968306002 269.484095593 419.803312723 275.319102314L702.646025198 558.161814789C696.811018477 552.326808068 690.139227544 547.160595986 682.694272475 542.854432475Z"
           style="" />
        <path
           id="path4520"
           d="M419.803312723 275.319102314C447.088787782 302.604577373 456.0766769 344.514285546 440.26172 381.49219L723.104432475 664.334902475C738.919389375 627.356998021 729.931500257 585.447289847 702.646025198 558.161814789Z"
           style="" />
        <path
           id="path4522"
           d="M440.26172 381.49219L476.21289 434.58008L759.055602475 717.422792475L723.104432475 664.334902475Z"
           style="" />
        <path
           id="path4524"
           d="M476.21289 434.58008L540.16406 439.16992L823.006772475 722.012632475L759.055602475 717.422792475Z"
           style="" />
        <path
           id="path4526"
           d="M540.16406 439.16992C582.392275397 355.87265605 564.360367092 257.207820992 501.173630869 194.02108477L784.016343344 476.863797244C847.203079567 540.050533467 865.234987872 638.715368525 823.006772475 722.012632475Z"
           style="" />
        <path
           id="path4528"
           d="M501.173630869 194.02108477C488.376579585 181.224033485 473.727395318 169.882201056 457.35156 160.41797L740.194272475 443.260682475C756.570107792 452.72491353 771.219292059 464.066745959 784.016343344 476.863797244Z"
           style="" />
        <path
           id="path4530"
           d="M457.35156 160.41797C425.74185 142.23812 390.00653 132.56095 353.625 132.26562L636.467712475 415.108332475C672.849242475 415.403662475 708.584562475 425.080832475 740.194272475 443.260682475Z"
           style="" />
        <path
           id="path4532"
           d="M323.40625 134.09375C258.47057 142.80394 201.23777 181.11649 168.4375 237.83203L451.280212475 520.674742475C484.080482475 463.959202475 541.313282475 425.646652475 606.248962475 416.936462475Z"
           style="" />
        <path
           id="path4534"
           d="M168.4375 237.83203C139.44414 288.24604 132.48999 348.37463 149.20898 404.07617L432.051692475 686.918882475C415.332702475 631.217342475 422.286852475 571.088752475 451.280212475 520.674742475Z"
           style="" />
        <path
           id="path4536"
           d="M149.20898 404.07617L195.69141 355.71875L478.534122475 638.561462475L432.051692475 686.918882475Z"
           style="" />
        <path
           id="path4538"
           d="M195.69141 355.71875L257.70508 365.31836L540.547792475 648.161072475L478.534122475 638.561462475Z"
           style="" />
        <path
           id="path4540"
           d="M257.70508 365.31836C252.16357 341.52404 255.85454 316.51234 268.03125 295.33203L550.873962475 578.174742475C538.697252475 599.355052475 535.006282475 624.366752475 540.547792475 648.161072475Z"
           style="" />
        <path
           id="path4542"
           d="M268.03125 295.33203C281.94177 271.29754 305.53076 254.42199 332.76953 249.01758L615.612242475 531.860292475C588.373472475 537.264702475 564.784482475 554.140252475 550.873962475 578.174742475Z"
           style="" />
        <path
           id="path4544"
           d="M332.76953 249.01758L358.08789 191.55664L640.930602475 474.399352475L615.612242475 531.860292475Z"
           style="" />
        <path
           id="path4546"
           d="M358.08789 191.55664L323.40625 134.09375L606.248962475 416.936462475L640.930602475 474.399352475Z"
           style="" />
        <path
           id="path4548"
           d="M203.45703 377.36914L156.99023 425.7207L439.832942475 708.563412475L486.299742475 660.211852475Z"
           style="" />
        <path
           id="path4550"
           d="M156.99023 425.7207C167.677014395 451.15862402 183.16288499 474.089797775 202.428845823 493.355758608L485.271558298 776.198471083C466.005597465 756.93251025 450.519726869 734.001336495 439.832942475 708.563412475Z"
           style="" />
        <path
           id="path4552"
           d="M202.428845823 493.355758608C215.313891948 506.240804733 229.889740164 517.486432408 245.85156 526.74609L528.694272475 809.588802475C512.732452638 800.329144883 498.156604423 789.083517207 485.271558298 776.198471083Z"
           style="" />
        <path
           id="path4554"
           d="M245.85156 526.74609C343.12253 582.74418 467.19637 553.00996 528.51758 459.00391L811.360292475 741.846622475C750.039082475 835.852672475 625.965242475 865.586892475 528.694272475 809.588802475Z"
           style="" />
        <path
           id="path4556"
           d="M528.51758 459.00391L464.62109 454.44531L747.463802475 737.288022475L811.360292475 741.846622475Z"
           style="" />
        <path
           id="path4558"
           d="M464.62109 454.44531L428.72266 401.38672L711.565372475 684.229432475L747.463802475 737.288022475Z"
           style="" />
        <path
           id="path4560"
           d="M428.72266 401.38672C399.45935 440.44094 345.64532 451.50205 303.35156 427.1543L586.194272475 709.997012475C628.488032475 734.344762475 682.302062475 723.283652475 711.565372475 684.229432475Z"
           style="" />
        <path
           id="path4562"
           d="M303.35156 427.1543C296.036366773 422.922953004 289.348427449 417.772451998 283.434642943 411.858667492L566.277355417 694.701379967C572.191139923 700.615164473 578.879079248 705.765665479 586.194272475 709.997012475Z"
           style="" />
        <path
           id="path4564"
           d="M283.434642943 411.858667492C276.18942823 404.613452779 270.106195387 396.222573702 265.45508 386.97266L548.297792475 669.815372475C552.948907861 679.065286176 559.032140704 687.456165254 566.277355417 694.701379967Z"
           style="" />
        <path
           id="path4566"
           d="M265.45508 386.97266L203.45703 377.36914L486.299742475 660.211852475L548.297792475 669.815372475Z"
           style="" />
      </g>
      <path
         id="path4168"
         d="M 353.625 132.26562 C 351.19956 132.24594 348.77194 132.26806 346.3418 132.33203 L 381.02148 189.78711 L 355.70312 247.24414 C 371.23267 247.88237 386.37834 252.26275 399.85156 260.01172 C 442.11038 284.45423 459.45871 336.60655 440.26172 381.49219 L 476.21289 434.58008 L 540.16406 439.16992 C 590.94465 339.00267 554.58474 216.6128 457.35156 160.41797 C 425.74185 142.23812 390.00653 132.56095 353.625 132.26562 z M 323.40625 134.09375 C 258.47057 142.80394 201.23777 181.11649 168.4375 237.83203 C 139.44414 288.24604 132.48999 348.37463 149.20898 404.07617 L 195.69141 355.71875 L 257.70508 365.31836 C 252.16357 341.52404 255.85454 316.51234 268.03125 295.33203 C 281.94177 271.29754 305.53076 254.42199 332.76953 249.01758 L 358.08789 191.55664 L 323.40625 134.09375 z M 203.45703 377.36914 L 156.99023 425.7207 C 174.82432 468.17147 206.02333 503.64122 245.85156 526.74609 C 343.12253 582.74418 467.19637 553.00996 528.51758 459.00391 L 464.62109 454.44531 L 428.72266 401.38672 C 399.45935 440.44094 345.64532 451.50205 303.35156 427.1543 C 287.07423 417.73896 273.90259 403.77266 265.45508 386.97266 L 203.45703 377.36914 z "
         style="opacity:1;fill:#000000;fill-opacity:1;stroke:none;stroke-width:1;stroke-linecap:round;stroke-linejoin:miter;stroke-miterlimit:4;stroke-dasharray:none;stroke-opacity:1" />
    </g>
    <path
       style="opacity:1;fill:#ffffff;fill-opacity:1;stroke:none;stroke-width:1;stroke-linecap:round;stroke-linejoin:miter;stroke-miterlimit:4;stroke-dasharray:none;stroke-opacity:1"
       d="m 540.16444,439.1702 -63.95123,-4.59063 -35.95124,-53.08808 c 19.19699,-44.88564 1.84872,-97.03781 -40.4101,-121.48032 -13.47322,-7.74897 -28.61885,-12.12886 -44.1484,-12.76709 L 381.0222,189.7878 346.34096,132.33152 c 38.8823,-1.02356 77.29389,8.69489 111.01092,28.08673 97.23318,56.19483 133.59315,178.5847 82.81256,278.75195 z"
       id="path4336" />
    <path
       style="opacity:1;fill:#324867;fill-opacity:1;stroke:none;stroke-width:1;stroke-linecap:round;stroke-linejoin:miter;stroke-miterlimit:4;stroke-dasharray:none;stroke-opacity:1"
       d="m 528.51728,459.00381 c -61.32121,94.00605 -185.39443,123.74127 -282.6654,67.74318 -39.82823,-23.10487 -71.02851,-58.5761 -88.8626,-101.02687 l 46.46837,-48.35142 61.99749,9.60414 c 8.44751,16.8 21.6194,30.7659 37.89673,40.18124 42.29376,24.34775 96.1079,13.28776 125.37121,-25.76646 l 35.8971,53.05681 z"
       id="path4338" />
    <path
       style="opacity:1;fill:#ff3700;fill-opacity:1;stroke:none;stroke-width:1;stroke-linecap:round;stroke-linejoin:miter;stroke-miterlimit:4;stroke-dasharray:none;stroke-opacity:1"
       d="m 332.77001,249.0168 c -27.23877,5.40441 -50.82907,22.28133 -64.73959,46.31582 -12.17671,21.18031 -15.86661,46.19084 -10.3251,69.98516 l -62.01316,-9.5985 -46.48401,48.35705 c -16.71899,-55.70154 -9.764,-115.8297 19.22936,-166.24371 32.80027,-56.71554 90.03312,-95.02789 154.9688,-103.73808 l 34.68185,57.46113 z"
       id="path4340" />
    <text
       xml:space="preserve"
       style="font-style:normal;font-weight:normal;font-size:36.26447678px;line-height:125%;font-family:sans-serif;letter-spacing:0px;word-spacing:0px;fill:#ffffff;fill-opacity:1;stroke:none;stroke-width:1px;stroke-linecap:butt;stroke-linejoin:miter;stroke-opacity:1"
       x="175.24258"
       y="346.58972"
       id="text4630"
       sodipodi:linespacing="125%"><tspan
         sodipodi:role="line"
         id="tspan4632"
         x="175.24258"
         y="346.58972"
         style="font-style:normal;font-variant:normal;font-weight:normal;font-stretch:normal;font-size:36.26447678px;line-height:125%;font-family:Hack;-inkscape-font-specification:'Hack, Normal';text-align:start;writing-mode:lr-tb;text-anchor:start;fill:#ffffff">01</tspan></text>
    <text
       sodipodi:linespacing="125%"
       id="text4634"
       y="208.58972"
       x="386.24258"
       style="font-style:normal;font-weight:normal;font-size:36.26447678px;line-height:125%;font-family:sans-serif;letter-spacing:0px;word-spacing:0px;fill:#324867;fill-opacity:1;stroke:none;stroke-width:1px;stroke-linecap:butt;stroke-linejoin:miter;stroke-opacity:1"
       xml:space="preserve"><tspan
         style="font-style:normal;font-variant:normal;font-weight:normal;font-stretch:normal;font-size:36.26447678px;line-height:125%;font-family:Hack;-inkscape-font-specification:'Hack, Normal';text-align:start;writing-mode:lr-tb;text-anchor:start;fill:#324867;fill-opacity:1"
         y="208.58972"
         x="386.24258"
         id="tspan4636"
         sodipodi:role="line">02</tspan></text>
    <text
       sodipodi:linespacing="125%"
       id="text4638"
       y="481.58972"
       x="420.24258"
       style="font-style:normal;font-weight:normal;font-size:36.26447678px;line-height:125%;font-family:sans-serif;letter-spacing:0px;word-spacing:0px;fill:#ffffff;fill-opacity:1;stroke:none;stroke-width:1px;stroke-linecap:butt;stroke-linejoin:miter;stroke-opacity:1"
       xml:space="preserve"><tspan
         style="font-style:normal;font-variant:normal;font-weight:normal;font-stretch:normal;font-size:36.26447678px;line-height:125%;font-family:Hack;-inkscape-font-specification:'Hack, Normal';text-align:start;writing-mode:lr-tb;text-anchor:start;fill:#ffffff"
         y="481.58972"
         x="420.24258"
         id="tspan4640"
         sodipodi:role="line">03</tspan></text>
    <text
       xml:space="preserve"
       style="font-style:normal;font-weight:normal;font-size:40px;line-height:125%;font-family:sans-serif;letter-spacing:0px;word-spacing:0px;fill:#000000;fill-opacity:1;stroke:none;stroke-width:1px;stroke-linecap:butt;stroke-linejoin:miter;stroke-opacity:1"
       x="185"
       y="222.36218"
       id="text4642"
       sodipodi:linespacing="125%"><tspan
         sodipodi:role="line"
         id="tspan4644"
         x="185"
         y="222.36218"
         style="font-size:15px;fill:#ffffff">Put your text here</tspan><tspan
         sodipodi:role="line"
         x="185"
         y="241.11218"
         style="font-size:15px;fill:#ffffff"
         id="tspan4646">Put your text here</tspan><tspan
         sodipodi:role="line"
         x="185"
         y="259.86218"
         style="font-size:15px;fill:#ffffff"
         id="tspan4648">Put your</tspan><tspan
         sodipodi:role="line"
         x="185"
         y="278.61218"
         style="font-size:15px;fill:#ffffff"
         id="tspan4650">text here</tspan></text>
    <text
       xml:space="preserve"
       style="font-style:normal;font-weight:normal;font-size:40px;line-height:125%;font-family:sans-serif;letter-spacing:0px;word-spacing:0px;fill:#000000;fill-opacity:1;stroke:none;stroke-width:1px;stroke-linecap:butt;stroke-linejoin:miter;stroke-opacity:1"
       x="270.33154"
       y="457.82922"
       id="text4642-7"
       sodipodi:linespacing="125%"><tspan
         sodipodi:role="line"
         id="tspan4644-9"
         x="270.33154"
         y="457.82922"
         style="font-size:15px;fill:#ffffff">Put your text here</tspan><tspan
         sodipodi:role="line"
         x="270.33154"
         y="476.57925"
         style="font-size:15px;fill:#ffffff"
         id="tspan4646-3">Put your text here</tspan><tspan
         sodipodi:role="line"
         x="270.33154"
         y="495.32925"
         style="font-size:15px;fill:#ffffff"
         id="tspan4648-9">Put your</tspan><tspan
         sodipodi:role="line"
         x="270.33154"
         y="514.07922"
         style="font-size:15px;fill:#ffffff"
         id="tspan4650-2">text here</tspan></text>
    <text
       xml:space="preserve"
       style="font-style:normal;font-weight:normal;font-size:40px;line-height:125%;font-family:sans-serif;letter-spacing:0px;word-spacing:0px;fill:#324867;fill-opacity:1;stroke:none;stroke-width:1px;stroke-linecap:butt;stroke-linejoin:miter;stroke-opacity:1"
       x="445.33154"
       y="257.82925"
       id="text4642-7-8"
       sodipodi:linespacing="125%"><tspan
         sodipodi:role="line"
         id="tspan4644-9-3"
         x="445.33154"
         y="257.82925"
         style="font-size:15px;fill:#324867;fill-opacity:1">Put your text </tspan><tspan
         sodipodi:role="line"
         x="445.33154"
         y="276.57925"
         style="font-size:15px;fill:#324867;fill-opacity:1"
         id="tspan4646-3-0">here Put your</tspan><tspan
         sodipodi:role="line"
         x="445.33154"
         y="295.32925"
         style="font-size:15px;fill:#324867;fill-opacity:1"
         id="tspan4648-9-1">text here Put</tspan><tspan
         sodipodi:role="line"
         x="445.33154"
         y="314.07925"
         style="font-size:15px;fill:#324867;fill-opacity:1"
         id="tspan4650-2-7">your text here</tspan></text>
  </g>
</svg>
